<svg xmlns="http://www.w3.org/2000/svg" xmlns:xlink="http://www.w3.org/1999/xlink" width="65" height="67" viewBox="0 0 65 67">
  <!-- <defs>
    <filter id="Rectangle_86" x="0" y="0" width="65" height="67" filterUnits="userSpaceOnUse">
      <feOffset dy="3" input="SourceAlpha"/>
      <feGaussianBlur stdDeviation="4" result="blur"/>
      <feFlood flood-opacity="0.161"/>
      <feComposite operator="in" in2="blur"/>
      <feComposite in="SourceGraphic"/>
    </filter>
  </defs> -->
  <g id="Group_117" data-name="Group 117" transform="translate(-289 -99)">
    <g id="Group_116" data-name="Group 116">
      <g transform="matrix(1, 0, 0, 1, 289, 99)">
        <rect id="Rectangle_86-2" data-name="Rectangle 86" width="41" height="43" rx="15" transform="translate(12 9)" fill="#fff"/>
      </g>
    </g>
    <path id="Vector" d="M.477,10.834A.479.479,0,0,1,.139,10.7a.464.464,0,0,1,0-.662L4.3,5.96a.758.758,0,0,0,0-1.087L.139.8a.464.464,0,0,1,0-.662.489.489,0,0,1,.677,0L4.976,4.21a1.684,1.684,0,0,1,.511,1.206,1.659,1.659,0,0,1-.511,1.206L.815,10.7A.507.507,0,0,1,.477,10.834Z" transform="translate(318.892 123.688)"/>
  </g>
</svg>
