<svg xmlns="http://www.w3.org/2000/svg" xmlns:xlink="http://www.w3.org/1999/xlink" width="64" height="46" viewBox="0 0 64 46">
  <defs>
    <linearGradient id="linear-gradient" x1="0.5" x2="0.5" y2="1" gradientUnits="objectBoundingBox">
      <stop offset="0" stop-color="#72BAA2"/>
      <stop offset="1" stop-color="#7DC24C"/>
    </linearGradient>
    <filter id="Rectangle_100" x="0" y="0" width="64" height="46" filterUnits="userSpaceOnUse">
      <feOffset dy="3" input="SourceAlpha"/>
      <feGaussianBlur stdDeviation="2.5" result="blur"/>
      <feFlood flood-opacity="0.149"/>
      <feComposite operator="in" in2="blur"/>
      <feComposite in="SourceGraphic"/>
    </filter>
  </defs>
  <g id="Group_118" data-name="Group 118" transform="translate(-18.5 -323.5)">
    <g transform="matrix(1, 0, 0, 1, 18.5, 323.5)" filter="url(#Rectangle_100)">
      <rect id="Rectangle_100-2" data-name="Rectangle 100" width="49" height="31" rx="15.5" transform="translate(7.5 4.5)" fill="url(#linear-gradient)"/>
    </g>
    <g id="paperclip" transform="translate(14.958 335)">
      <g id="Group_102" data-name="Group 102" transform="translate(28.042 0)">
        <path id="Path_15" data-name="Path 15" d="M29.28,1.238a4.239,4.239,0,0,1,5.989,0l6.306,6.306a.5.5,0,1,1-.7.7L34.564,1.943a3.317,3.317,0,0,0-4.58,0,3.242,3.242,0,0,0,0,4.579l8.8,8.9a2.04,2.04,0,0,0,2.818,0,2,2,0,0,0,0-2.818L33.155,4.056a.765.765,0,0,0-1.057,0,.749.749,0,0,0,0,1.057l8.1,8.2a.555.555,0,0,1,0,.7.5.5,0,0,1-.7,0l-8.1-8.2a1.745,1.745,0,0,1,0-2.466,1.786,1.786,0,0,1,2.466,0L42.312,11.9a3.009,3.009,0,0,1,0,4.227,3,3,0,0,1-4.227,0l-8.8-8.9A4.239,4.239,0,0,1,29.28,1.238Z" transform="translate(-28.042 0)" fill="#fff"/>
      </g>
    </g>
  </g>
</svg>
