<svg enable-background="new 0 0 453.8 453.5" viewBox="0 0 453.8 453.5" xmlns="http://www.w3.org/2000/svg"><path d="m313.5 435.8c-12.4 5.6-25.2 9.7-38.7 12.1-1.9.6-3.1.3-2.1-2 .8-1.7 2.3-2.8 3.6-4.1l43.9-43.9c1.6-1.6 3.4-3.1 4.3-5.4.8-1.6 2.2-2.4 3.6-3.3 25.1-15.8 45.4-36.4 61.4-61.3.9-1.4 1.7-2.8 3.3-3.6 2.2-.9 3.8-2.7 5.4-4.3 14.7-14.7 29.4-29.4 44.2-44.2 1.3-1.3 2.4-2.8 4.2-3.5 1.9-.7 2.4.2 1.6 2-1.9 11.9-5.7 23.2-10 34.4-.6 1.5-1.4 2.9-2.1 4.4-2.3 0-3.5 1.7-4.9 3.1-38.3 38.2-76.5 76.5-114.7 114.7-1.4 1.4-3 2.6-3 4.9z" fill="#f1952e"/><path d="m6.1 175.4c1.2-8.3 3.9-16.2 6.7-24.1 5.1-4.5 9.7-9.5 14.5-14.3 39.2-39 78.3-78.1 117.4-117.2 2.3-2.3 4.2-5.1 7.1-6.9 7.7-3.4 15.7-5.7 24-7.1.7 3.4-1.9 5.1-3.8 6.9-16.9 17-34 34-50.9 51-1.4 1.4-3 2.6-3.6 4.6-3.6 4.5-8.8 7-13 10.7-12 10.8-23.5 21.7-32.7 34.9-.9 1.2-1.7 2.5-3.1 3.1-2.2.7-3.5 2.5-5 4-16.9 16.9-33.7 33.8-50.7 50.6-1.8 1.9-3.5 4.6-6.9 3.8z" fill="#f0d55e"/><path d="m313.5 435.8c-1-.2-2.3-.4-1.5-1.8.5-1 1.5-1.8 2.3-2.6 39.1-39.2 78.3-78.3 117.5-117.4.8-.8 1.9-5.3 4.3-1-7.5 19.9-18.5 37.8-31.7 54.4-23.3 29.3-52 51.5-86.3 66.6-1.4.8-3 1.3-4.6 1.8z" fill="#f2912a"/><path d="m151.8 12.9c-.8 2-2.2 3.7-3.7 5.2-43.5 43.4-86.9 86.9-130.4 130.3-1.4 1.4-2.5 3.3-4.9 3 4-11.8 8.8-23.2 15.3-33.8 29.8-30 59.7-60 89.8-89.7 10.7-6.5 21.9-11.7 33.9-15z" fill="#efd75f"/><path d="m448.2 274.3c-.2-.7-.1-2-1.3-1.1-1.1.7-1.9 1.8-2.9 2.7-15.4 15.4-30.7 30.7-46.1 46-1.4 1.4-2.4 3.3-4.8 3.1-1.1-2.4.4-4.2 1.4-6 6.3-10.6 10.7-22 14.5-33.6.6-1.7 1-3.5 2.5-4.8 3.1-1.7 5.4-4.3 7.8-6.8 8.5-8.5 17.1-17.1 25.6-25.6.8-.8 1.6-1.7 2.5-2.4 1.2-1.1 2.5-2.7 4.2-1.8 1.8 1 1 2.8.6 4.4-.4 8.8-1.5 17.4-4 25.9z" fill="#f19730"/><path d="m325.4 392.7c.2 2.4-1.7 3.5-3.1 4.8-15.6 15.6-31.2 31.2-46.8 46.9-.7.7-4.2 1.7-.6 3.4-8.2 2.3-16.6 3.6-25.1 3.9-1.6.9-3.5 0-5.1.7-.4 0-.7.1-1.1.1-1.3-2.7 1-3.9 2.4-5.3 7.9-8 15.9-16 23.9-23.9 4-4 8.1-7.9 11.3-12.5 5.9-2.7 12.1-4.5 18.1-7 6.9-2.8 13.8-5.8 20.2-9.7 1.7-1 3.5-2.5 5.9-1.4z" fill="#f19730"/><path d="m235.8 452.8c-10.2 1.4-20.5.1-30.7-.5-4.4-.3-8.9-1.2-13.3-1.8-.3-2.4 1.5-3.5 2.9-4.9 7.7-7.8 15.5-15.4 23.1-23.2 2.8-2.8 5.8-4 9.7-3.9s7.9.5 11.8-.7c4.5-.2 8.9-2.2 13.5-.8 2.8 3.1-.2 4.8-1.8 6.5-7.3 7.7-14.9 15-22.4 22.6-1.4 1.4-2.9 2.7-4.2 4.6 3.7 2.2 8.1-.7 11.4 2.1z" fill="#f19d35"/><path d="m3.1 262.4c-2.1-9.3-3-18.6-2.8-28.1.7-1.5 1.6-2.9 2.8-4.1 8.7-8.7 17.3-17.5 26.1-26 1.7-1.6 3.6-5.1 6.7-1.4.3 1.3.2 2.6 0 3.9-.7 2.1-.5 4.3-.4 6.4-.2 6 .4 11.9-.4 17.9-1 2.9-3.7 4.1-5.6 6.1-7.3 7.4-14.7 14.8-22.1 22.1-1.2 1.1-2.5 2.5-4.3 3.2z" fill="#efcc58"/><path d="m450.9 192.4c1.7 9.6 2.7 19.2 2.3 28.9-10.4 8.9-19.5 19.1-29.4 28.5-1.6 1.6-3.3 4.9-6.4 1.7-1.4-4.9.4-9.6.8-14.4 1.2-3.5.8-7.2.7-10.8-.1-3.4 1-6 3.4-8.4 7.8-7.7 15.4-15.4 23.2-23.1 1.4-1.4 2.7-3.6 5.4-2.4z" fill="#f19d35"/><path d="m117.9 27.8c-.9 2.2-2.4 3.9-4.1 5.6-26.7 26.7-53.4 53.4-80.1 80.1-1.7 1.7-3.4 3.2-5.6 4 7-14.1 16.1-26.7 26.3-38.5 17.3-20.2 37.6-36.9 60.8-50 .9-.5 1.8-.8 2.7-1.2z" fill="#efd961"/><path d="m6.1 175.4c2.4-.8 4.2-2.6 5.9-4.3 17.3-17.3 34.6-34.6 52-51.9 1.1-1.1 1.8-3.2 4-2.6.7 1.4 0 2.6-.7 3.7-6.6 9.7-12.1 20-16.7 30.8-.5 1.1-1.1 2-2 2.8-6.2 4.7-11.2 10.7-16.8 16.1-7.6 7.4-14.9 15-22.5 22.4-1.9 1.8-3.6 4.5-7.1 3.1.7-6.9 1.8-13.6 3.9-20.1z" fill="#f0d45d"/><path d="m235.6 0c8.8.1 17.5.7 26.1 2.8 0 2.2-1.5 3.6-2.9 5-8.5 8.8-17.4 17.1-25.7 26.1-.5.5-1.1.7-1.7 1-5.3.8-10.7.3-16.1.4-2.4-.1-4.9-.3-7.3.4-1.3.3-2.6.3-3.9-.2-2.1-1.8-.7-3.4.5-4.6 10.3-10.5 20.4-21 31-30.9z" fill="#efcc58"/><path d="m418.2 252.2c2.1 0 3.2-1.7 4.4-2.9 8.1-8.1 16.2-16.2 24.3-24.3 1.8-1.8 3.6-3.4 6.3-3.7.7 3.4.7 6.8 0 10.2 0 5.7.5 11.4-1 16.9-.3-1.2.6-3-.9-3.6s-2.3 1-3.1 1.9c-10.4 10.4-20.8 20.8-31.3 31.2-1.4 1.4-2.4 3.3-4.8 3.2-1.1-1.1-1.1-2.4-.8-3.7 1.8-7.4 3.4-14.9 4.9-22.4.3-1.1.9-2.1 2-2.8z" fill="#f19a33"/><path d="m116.9 67.7c-.6-2.3 1.5-3 2.6-4.1 17.2-17.3 34.5-34.6 51.8-51.9 1.8-1.8 3.5-3.5 4.4-5.9 6.1-2.1 12.5-2.9 18.9-3.7-.8 4.1-3.9 6.7-6.6 9.5-10.3 10.5-20.8 20.9-31.2 31.3-1.5 1.5-3.3 2.9-2.7 5.4-1.5 2.2-4.1 2.8-6.3 3.7-9.3 4-18 9.3-26.7 14.4-1.3.7-2.5 1.9-4.2 1.3z" fill="#f0d45d"/><path d="m153.8 47.7c-3.4-.9-1.1-2.3-.1-3.3 3.1-3.2 6.3-6.3 9.4-9.5 10.6-10.9 22.1-20.9 31.6-32.8 7.3-1.2 14.6-2.1 22-2 .3 2.6-1.9 3.7-3.3 5.2-9.4 9.5-18.9 19-28.4 28.5-1.8 1.8-3.5 3.6-4.1 6.1-8.9 3.1-17.6 6.9-27.1 7.8z" fill="#efd15c"/><path d="m235.8 452.8c-3.5 0-7 0-10.4-.1-1.1 0-2.6.5-3.1-.9-.5-1.3.9-2 1.6-2.8 8.5-8.6 17.1-17.2 25.7-25.7 1.7-1.7 3.2-3.4 4-5.6.5-1.4 1.7-1.9 3.1-2.2 7.1-1.3 14.1-2.8 21.2-4.5 1.3-.3 2.6-.4 3.7.6-3.8 6.7-10 11.3-15.3 16.8-6.4 6.7-13.1 13.1-19.6 19.7-1.2 1.3-2.9 2.2-3 4.3-2.7.3-5.3.3-7.9.4z" fill="#f19a33"/><path d="m307.5 14.8c7.8 2.4 15.2 5.8 22.2 9.8-1.2 3.3-4.2 5.1-6.4 7.4-6.1 6.3-12.6 12.2-18.1 19-8-2.6-15.9-5.2-23.6-8.8-1.2-2.3.3-3.9 1.6-5.3 6.8-7 13.8-13.9 20.8-20.7.9-.9 1.9-1.9 3.5-1.4z" fill="#f0c14f"/><path d="m440 149.5c3 7.4 5.3 15.1 6.9 22.9-9.6 8.2-17.9 17.7-27.1 26.4-.8.7-1.1 2.2-2.7 1.6-2.6-7.8-3.6-16-5.1-24 0-2.5 1.5-4.3 3.1-6 6.3-6.3 12.6-12.7 18.9-18.9 1.7-1.6 3.2-3.9 6-2z" fill="#f0a339"/><path d="m25.2 330c-4.3-7.2-7.6-14.8-10.1-22.7-.6-2.2 1.1-3.3 2.3-4.5 5.9-6 11.8-12 17.9-17.9 1.9-1.9 3.9-4.3 7.2-2.8 3.3 7.3 6.7 14.5 8.3 22.4-8.5 8.6-16.9 17.2-25.6 25.5z" fill="#f0c14f"/><path d="m171.8 446.5c-7.5-1.7-14.9-3.8-22-6.8-2-1.1-1.2-2.6-.2-3.7 7.6-7.9 15.2-15.7 23.2-23.1 1-.9 2.4-1.2 3.7-1.2 7.7 1.5 15.5 2.4 23 5 .8 1.4-.4 2.1-1.1 2.9-8.3 9.5-17.3 18.3-26.6 26.9z" fill="#f0a339"/><path d="m399.3 79.6c5.2 5.5 9.9 11.4 13.7 18-7.6 8.4-15.9 16.1-23.9 24.2-.5 0-1.1 0-1.4-.4-4.8-6-10.1-11.6-13.2-18.8.3-1.9 1.7-3.2 3-4.4 5.5-5.5 10.9-11 16.5-16.4 1.3-1.3 2.6-3.6 5.3-2.2z" fill="#f0b042"/><path d="m98 412.9c-6.5-3.9-12.5-8.5-18-13.9-1-1.6-.2-2.9.8-4 6.5-6.7 13-13.4 19.9-19.8.6-.6 1.4-.9 2.2-1 7.2 3.7 14 8.1 19.3 14.4-8 8.2-16.1 16.4-24.2 24.3z" fill="#f0b042"/><path d="m171.8 446.5c.3-2.4 2.4-3.5 3.8-5 7.2-7.7 15.4-14.5 22-22.8.4-.5 1.5-.6 2.2-.9 1.9-1.8 4.3-1.7 6.6-1.3 8.6 1.2 17.2.7 25.8.8 2.3 0 4.7-.3 6.5 1.7-4.1 1.8-8.5.5-12.7.8-2 .1-3.9.1-5.5 1.7-9.5 9.7-19.1 19.3-28.7 29-6.8-.8-13.4-2.2-20-4z" fill="#f1a037"/><path d="m418.2 200.4c.1-1-.1-2 .7-2.8 8.3-8.2 16.7-16.3 25-24.5.9-.9 1.7-1.6 3-.7 1.9 6.6 3.2 13.2 4 20-2.1.1-3.1 1.9-4.3 3.1-7.3 7.2-14.4 14.7-21.9 21.7-3.3 3.1-4.9 6.3-4.5 10.8.2 2.7 1 5.6-.8 8.2-1.7-1.5-1.6-3.6-1.6-5.5-.2-8.3.3-16.6-.9-24.8-.4-1.9-.3-3.9 1.3-5.5z" fill="#f1a037"/><path d="m389.2 121.7c0-1.5.9-2.4 1.8-3.4 6.3-6.3 12.7-12.7 19-19 .8-.8 1.7-1.6 2.9-1.7 4.5 6 8.8 12.1 12 19-6.7 7.5-14.1 14.4-21.2 21.4-1.3 1.3-2.9 2.3-4.9 2-4-5.6-8.8-10.9-9.6-18.3z" fill="#f0ac3f"/><path d="m180.8 38.7c-1.9-2.4.8-3.1 1.8-4.2 11.3-11.6 22.7-23 34.1-34.5 6.3 0 12.7-.1 19-.1-1 2.5-2.9 4.3-4.8 6.2-8.1 8-16.1 16.1-24.2 24.2-1.2 1.3-2.9 2.3-2.9 4.4.1 1.3-.8 1.8-1.7 2-6 .9-12 2.3-18 3-1.3.2-2.4 0-3.3-1z" fill="#efce5a"/><path d="m2.3 195.4c2.9-.3 4.7-2.3 6.5-4.2 11.5-11.5 22.9-23 34.5-34.4 1.4-1.4 2.4-3.2 4.8-3.3.7 1.3.3 2.6-.1 3.9-2.8 7.6-4.6 15.6-7.7 23.1-2.5.6-4.3 2.3-6.1 4.1-9.5 9.5-19 19.1-28.6 28.5-1.5 1.4-2.6 3.6-5.2 3.3-.2-7.2.8-14.1 1.9-21z" fill="#efd15b"/><path d="m98 412.9c0-1.5.9-2.4 1.8-3.4 6.3-6.3 12.6-12.6 18.9-18.9.9-.9 1.9-1.8 3.4-1.8 7.4 2.2 14.4 5.4 20.1 10.8-9.1 7.8-17.5 16.2-25.2 25.3-6.7-3.5-13.1-7.3-19-12z" fill="#f0ac3f"/><path d="m307.5 14.8c-8.9 8.7-18.6 16.6-25.9 26.9-7.3.4-13.8-2.4-20.6-4.3-2-2.1-.3-3.7 1-5.1 7.2-7.5 14.6-14.8 22.1-22.1 1.3-1.3 2.8-2.4 4.9-1.5 6.3 1.2 12.5 3.3 18.5 6.1z" fill="#efc452"/><path d="m42.1 282.2c-1.7.1-3.3.8-4.4 2-7.5 7.7-15.6 14.8-22.6 23.1-2.7-5.8-4.8-11.7-6-18-1.2-2.6.2-4.5 1.9-6.2 6.9-7 13.8-13.9 20.8-20.8 1.7-1.7 3.6-4 6.1-.7 2.1 5.8 2.9 11.9 4.6 17.8.4.9.3 1.9-.4 2.8z" fill="#efc452"/><path d="m25.2 330c0-1.3.7-2.1 1.5-3 6.4-6.4 12.8-12.9 19.3-19.2 1.1-1.1 2.7-1.8 4.1-2.7.7-.2 1.4 0 1.7.6 3.2 5.8 6.9 11.4 8.7 17.9-7.4 5.7-13.4 13-20.2 19.4-1.7 1.5-2.9 3.6-5.3 4.3-4-5.5-7.2-11.2-9.8-17.3z" fill="#f0be4d"/><path d="m305.5 50.6c.6-1.3.8-3 1.7-4 7.4-7.4 14.4-15.3 22.5-22 6.3 2.7 12.2 6.1 17.7 10.1-.8 2.7-3.1 4.2-4.9 6-6.4 6.5-12.8 12.9-19.2 19.3-6.4-2.2-12.4-5.2-17.8-9.4z" fill="#f0be4d"/><path d="m175.8 412.8c-1.5 0-2.4.9-3.3 1.8-7.2 7.2-14.4 14.5-21.7 21.7-1 1-1.9 1.9-.9 3.3-6.6-2-12.9-4.5-19-7.7-1.1-1.6-.2-2.9.8-4 7.3-7.6 14.9-15 22.3-22.5.3-.3.9-.4 1.4-.5 6.7 1 12.9 3.9 19.3 5.9.7.4 1.3 1 1.1 2z" fill="#f0a73c"/><path d="m440 149.5c-1.4-.1-2.6.2-3.6 1.3-7.4 7.5-14.9 15-22.3 22.5-.5.5-.6 1.5-.9 2.2-1.2.2-1.9-.7-2.1-1.6-1.7-6.3-4.6-12.3-5.7-18.8.2-1.4 1.2-2.3 2.1-3.2 6.6-6.2 12.8-12.8 19.3-19.1 1.4-1.4 2.6-3.6 5.3-2.3 3 6.2 6 12.4 7.9 19z" fill="#f0a73c"/><path d="m.4 216.3c11.5-11.4 23-22.8 34.6-34.1 1-1 1.8-3.7 4.2-1.8 1.3 7.4-.9 14.4-2.7 21.5-.1.5-.8.4-1.3.4-2.6-.8-3.7 1.3-5.2 2.7-9.9 9.7-19.7 19.5-29.6 29.2-.6-5.9-.4-11.9 0-17.9z" fill="#efcf5a"/><path d="m323.4 59.6c0-1.3.7-2.2 1.6-3 7.5-7.3 14.9-14.6 22.4-21.9 5.7 3.1 11 6.7 15.9 11-7.8 8.2-16.1 16.1-24 24.2-6.3-1.8-11.4-5.5-15.9-10.3z" fill="#f0bb4b"/><path d="m35 347.2c6.9-8.2 15-15.2 22.4-23 .9-1 1.8-.5 2.7-.2 5.2 3.8 7.9 9.2 10.3 14.8-8.1 8.1-16.1 16.2-24.3 24.2-4.4-4.7-8-10-11.1-15.8z" fill="#f0bb4b"/><path d="m46 363.2c0-1.4.8-2.4 1.8-3.4l19.2-19.2c.8-.8 1.7-1.5 3-1.5 5.4 3.3 8.5 8.5 11.4 13.8-7.4 8.7-15.1 17-24.2 23.9-4.2-4.2-8-8.7-11.2-13.6z" fill="#efb848"/><path d="m399.3 79.6c-1.2 0-2.2.6-3 1.5-6.9 7.3-14.6 13.9-21 21.6-1.5.4-2.5-.5-3.4-1.5-3.6-3.9-7.7-7.5-9.9-12.5 6.5-8.3 14.5-15.2 22-22.6.6-.6 1.4-.8 2.3-.4 4.9 4 9.1 8.8 13 13.9z" fill="#f0b345"/><path d="m103 374.9c-7.9 6.8-14.9 14.5-22.2 21.9-.5.5-.6 1.5-.8 2.3-5.2-3.7-9.8-8.1-14-13-.7-1.8.6-2.8 1.7-3.8 5.9-6 11.9-12 18-18 1.2-1.2 2.5-2.2 4.4-2 4.8 3.6 10.5 6.3 12.9 12.6z" fill="#f0b345"/><path d="m339.4 69.7c0-1.7 1.1-2.6 2.2-3.7 6-6 12.1-12.1 18.1-18.1 1-1 2-2.2 3.7-2.2 4.8 3.1 9.3 6.7 13.3 10.8-.2 1-.4 2-1.1 2.7-7.2 7.5-14 15.3-22.2 21.7-5.7-2.5-10.7-5.8-14-11.2z" fill="#efb848"/><path d="m154.9 405.9c-6.9 7.1-13.9 14.2-20.8 21.3-1.4 1.4-3.2 2.5-3.2 4.8-4.6-2.3-9.3-4.7-13.9-7 .2-2.1 1.2-3.8 2.6-5.2 6-6 12-11.9 17.9-18 1.2-1.3 2.6-2.1 4.4-1.9 5.4-.4 9.5 2.1 13 6z" fill="#f0aa3d"/><path d="m432.1 130.5c-2.1.1-3.1 1.8-4.3 3-7.2 7-14.4 14-21.5 21.1-4.8-3.9-6.7-9.1-7-15.1 7.6-4.4 12.5-11.8 18.9-17.4 2.2-1.9 3.6-4.9 6.8-5.5 2.8 4.4 5.3 8.9 7.1 13.9z" fill="#f0aa3d"/><path d="m232.7 33.7c0-2.3 1.9-3.4 3.3-4.8 8.6-8.8 17.2-17.5 25.7-26.2 4.1.1 8 .8 11.9 2.1 1.4 1.7.7 3.2-.5 4.4-8.5 8.8-17 17.6-26.1 25.8-.4.3-.9.4-1.4.6-4.4-.1-8.9.4-12.9-1.9z" fill="#f1ca56"/><path d="m37.1 261.2c-1.8-1.2-2.7.2-3.7 1.2-7.4 7.4-14.7 14.8-22.1 22.1-1.4 1.4-2.3 2.8-2.1 4.8-2.1-5.2-3.4-10.6-4-16.1 8.1-8.4 16.3-16.5 24.6-24.6 1.6-1.5 3.3-4.1 6.2-1.5 0 4.7 3 9.2 1.1 14.1z" fill="#f1c754"/><path d="m35.1 246.3c-3.7 1.4-6 4.6-8.7 7.2-5.7 5.6-11.2 11.2-16.9 16.8-1.3 1.3-2.3 2.9-4.4 2.9-1.2-3.5-2-7.1-2-10.8 1-3 3.9-4.3 5.9-6.4 6.8-7 13.7-13.9 20.7-20.7 1.3-1.2 2.3-2.9 4.4-2.9 2.1 4.4 2.4 9.1 1 13.9z" fill="#f1ca56"/><path d="m246.6 34.7c8-8.2 16-16.3 24-24.5 1.5-1.5 3.3-2.9 2.9-5.4 5.3.6 10.4 1.8 15.3 3.8-1.2.1-2.2.5-3.1 1.4-8 8-16 16-24 24-.7.7-1.2 1.6-1.2 2.6-4.8 1.4-9.5.6-13.9-1.9z" fill="#f1c754"/><path d="m353.3 80.7c5.6-5.8 11.2-11.6 16.8-17.4 2.2-2.2 4.3-4.5 6.4-6.8 3.6 2.6 6.9 5.6 9.7 9.1-6.5 6.4-13 12.7-19.6 19.1-1.4 1.4-3 2.6-4.5 3.9-4-1.3-7.6-3.2-8.8-7.9z" fill="#f0b647"/><path d="m90 363c-.8.3-1.7.3-2.2.9-7.3 7.4-15.1 14.3-21.8 22.3-3.4-2.7-6.3-5.8-8.8-9.3 7.7-8.2 15.5-16.3 23.9-23.8 4.4 1.9 7.4 5.2 8.9 9.9z" fill="#efb647"/><path d="m453.2 231.5c0-3.4 0-6.8 0-10.2.9 3.4.8 6.8 0 10.2z" fill="#f19d35"/><path d="m244.7 452.5c1.6-1.3 3.4-.6 5.1-.7-1.6.9-3.4.9-5.1.7z" fill="#f19a33"/><path d="m90 363c-3-3.3-6-6.6-9-10-3.7-4.7-7.3-9.3-11-14-3.3-5-6.6-10-9.9-15-3.3-6.3-6.6-12.6-9.9-19-2.7-7.6-5.4-15.3-8-22.9-2-6.9-3.9-13.8-5-21-.7-5-2.6-9.8-2-15-1-4.6-1.1-9.3-1-14 0-6.6 0-13.3 0-19.9 1.3-1.8-.2-4.1 1-6 0-1.3 0-2.7 0-4 1.8-5.1 1.9-10.5 2.9-15.7.4-2.1.7-4.2 1.1-6.2 3-9 6-18 9-26.9 5.6-12.9 12.2-25.2 20-36.9 8.6-11.8 18.5-22.4 29-32.6 6.2-6 13.4-10.7 19.9-16.3 11.6-7.9 24.3-13.9 36.9-20 9-3 18-6 26.9-9 7.6-1.3 15.3-2.7 22.9-4h4c2.2-1.3 4.8.4 7-1h18c4.7-.6 9.3 1 14 1 4.7.7 9.3 1.3 14 2 7.1 1.2 14.1 2.8 21 5 8.2 2.4 16.3 5.1 23.9 8.9 6.4 2.2 12.1 5.8 18 9 5.3 3.4 10.6 6.7 15.9 10.1 4.7 3.7 9.3 7.3 14 11 2.3 3.4 6 5.2 8.9 8 4.4 4.6 7.9 10.1 13 14 4.4 6.5 8.8 13 14 19 2.8 6.3 6.6 12 10 17.8 2.1 5.1 3.9 10.4 7 15.1 2.3 7 4.7 13.9 7 20.9 1.7 8.3 3.3 16.6 5 24.9 1.5 11.9.9 23.9 1.1 35.9-.4 5.3-.8 10.6-1.1 16-2 9.6-4 19.3-6.1 28.9-3.5 8.3-5.8 17.2-9.8 25.3-3.1 6.2-6.2 12.4-9.3 18.6-6.4 9-12.4 18.3-19.6 26.7-13.3 15.4-28.4 28.6-45.8 39.2-.8.5-1.5 1.2-2.3 1.8-10.7 5.5-21.4 11.1-32.7 15.1-3.7 1.3-7.4 2.7-11.1 4-9.3 2-18.6 4-27.9 6-5 .4-10 .8-15 1.2-13-.1-25.9.2-38.9-1.2-8-1.7-16-3.3-24-5-7-2.3-14-4.7-20.9-7-4.3-2-8.7-4-13-6-6.6-3.7-13.2-7.3-19.9-11-6.3-4.7-12.6-9.3-19-14-3.9-4.5-8.9-7.7-13.2-11.8z" fill="#efdf64"/><path d="m35.1 206.3c-.3 2 .8 4.2-1 6 .3-2-.8-4.2 1-6z" fill="#efcf5a"/><path d="m214.7 33.8c-2.1 1.9-4.7.6-7 1 2.1-2 4.7-.7 7-1z" fill="#efce5a"/><path d="m38.3 226.3c-.5-25.6 4.9-50.1 14.8-73.6 9.7-23.1 23.6-43.5 41.5-60.9 27.4-26.6 60-43.6 97.5-50.9 1.5-.3 3-.2 4.5-.3 3.2 1.1.6 2.6 0 3.3-6.2 7.3-12.5 14.7-18.7 22-15.1 17.6-30.2 35.3-45.4 52.9-13.3 15.5-26.5 31-39.9 46.4-13 14.9-25.8 30-38.6 45-4.1 4.8-8.3 9.5-12.3 14.4-1 1-1.8 2.1-3.4 1.7z" fill="#f08d27"/><path d="m396.3 144.5c3.5 4.8 4.9 10.5 7 16-2.7 6-7.8 10-11.9 14.9-15.3 18.3-31.1 36.2-46.6 54.4-12.9 15.1-25.9 30.2-38.9 45.3-13.1 15.2-26.1 30.5-39.1 45.7-12.7 14.9-25.6 29.6-38.3 44.5-11.7 13.8-23.6 27.4-35.3 41.2-1.5 1.7-2.2 4.7-5.4 4.4-6.2-.8-12.3-2.1-18-5 11-13.8 22.8-26.8 34.1-40.3 15.2-18 30.8-35.7 46.1-53.7 2.9-3.4 5.7-6.9 8.8-10.2 1.4-1.5 2.3-3.2 2.5-5.3 1.1-1.8 3.1-1.8 4.8-2.4 24.1-8.6 39.2-25.4 45.4-50.1.6-2.4.5-5 2.3-7 7.4-7.2 13.7-15.3 20.3-23.1 13.4-15.6 26.9-31 40.2-46.7 5.1-6.1 10.3-12.1 15.5-18.1 1.8-1.9 3-4.8 6.5-4.5z" fill="#f0c14f"/><path d="m187.8 410.9c7.9-9.1 15.8-18.2 23.6-27.3 7-8.2 13.9-16.4 20.8-24.6 9.6-11.3 19.3-22.6 29-33.9 9-10.4 18-20.7 26.9-31.1 11-12.8 21.8-25.7 32.7-38.5 8.6-10.1 17.2-20 25.9-30.1 11.7-13.7 23.2-27.5 35.2-40.9 7.1-8 13.5-16.7 21.3-24.1 2.4 4.7 4 9.7 5 15-4.7 8.1-11.6 14.5-17.5 21.6-13.2 15.6-26.5 31.1-39.8 46.5-15.1 17.4-30.1 35-45.1 52.5-15.3 17.7-30.5 35.5-45.7 53.3-13.2 15.4-26.4 30.7-39.7 46-5.4 6.2-10.2 13.1-16.6 18.5-5.4-.9-11-.6-16-2.9z" fill="#f0c552"/><path d="m412.2 193.4c2.7 6.5 1.9 13.2 2 20-6.7 9.1-14.5 17.3-21.8 25.9-14.9 17.4-29.7 34.8-44.7 52.1-15.4 17.8-30.7 35.8-46 53.6-15.1 17.6-30.3 35.2-45.3 52.9-4.4 5.2-9.2 10-13 15.7-.5.5-1.2.8-1.7 1.2-5-.5-9.9.8-14.8 1-1.7.1-3.7.7-5.2-.9.4-3.8 3.4-6 5.6-8.6 28.3-32.8 56.5-65.8 84.7-98.7 25.2-29.4 50.4-58.7 75.7-88 6.6-7.7 13.2-15.4 19.7-23.1 1.3-1.6 2.5-3.2 4.8-3.1z" fill="#efcc58"/><path d="m244.6 38.8c5.2-.7 9.9 2.1 15 2 .1 3.4-2.5 5.2-4.4 7.4-19.7 23-39.5 46-59.3 69-10.1 11.8-20.3 23.6-30.4 35.5-.5.6-1.2 1.1-2 1.5-5.5-.1-5.5 4.1-5.9 7.9-10.5 11.7-20.7 23.8-30.9 35.7-12.9 15-25.7 30-38.6 45-11.2 12.9-22.3 26-33.5 38.9-1.7 2-3.1 4.9-6.6 4.5-2.2-4.4-3.2-9.1-4.1-13.9 4.2-6.4 9.7-11.8 14.6-17.5 15.4-18.1 30.8-36.1 46.3-54 15.3-17.7 30.6-35.4 45.8-53.2l45-52.5c13.2-15.4 26.2-30.8 39.7-46 3-3.5 5.3-7.6 9.3-10.3z" fill="#f19730"/><path d="m209.7 38.8c6.3-.9 12.6-1.4 18.9-.9 1.4 2.2-.5 3.4-1.6 4.6-20.1 23.6-40.4 47.1-60.5 70.7-23.1 27.1-46.5 54.1-69.7 81.2-17 19.9-34 39.9-51.3 59.6-1.3 1.4-2.6 4.6-5.2 1.3-.7-6.6-1.3-13.3-2-19.9 2.1-.2 3.5-1.4 4.9-3 22.1-25.7 44-51.4 66.1-77.1 21.3-24.8 42.7-49.5 64-74.3 10.9-12.7 21.9-25.3 32.6-38.3 1.1-1.5 2.4-2.7 3.8-3.9z" fill="#f2912b"/><path d="m40.3 255.3c1.3.8 2.1.6 3.2-.7 12-14.1 24-28.2 36.1-42.2 9-10.4 18-20.7 27-31.1 11.3-13.2 22.5-26.4 33.8-39.6 8.9-10.4 18-20.7 27-31.1 9-10.5 17.9-21.2 26.9-31.8 8.9-10.4 18.1-20.7 26.9-31.2 2.6-3.1 5.9-5.8 7.4-9.7 5.4-.7 10.6.7 16 .9-3.8 6.6-9.5 11.9-14.3 17.7-11.6 13.8-23.4 27.4-35.1 41.1-9 10.4-18 20.7-27 31.1-11 12.8-21.8 25.7-32.8 38.5-9 10.5-18.2 21-27.3 31.5-9.2 10.6-18.2 21.4-27.4 32.1-8.8 10.3-17.6 20.6-26.6 30.8-3.3 3.7-5.8 8.1-10.2 10.7-2-5.5-2.8-11.3-3.6-17z" fill="#f1952e"/><path d="m412.2 193.4c-5.8 5.2-10.3 11.6-15.5 17.3-7.4 8.2-14.4 16.8-21.6 25.2-11.4 13.3-22.7 26.6-34.1 39.9-8.8 10.3-17.7 20.5-26.5 30.8-9.1 10.7-18.2 21.4-27.3 32-8.7 10.2-17.5 20.3-26.2 30.4-9.7 11.3-19.3 22.6-29 33.9-3.4 4-6.9 8-10.4 12-5-.5-10.1 1.2-15-1 7.7-3.1 11.4-10.3 16.5-16.1 15.7-18 31.1-36.3 46.8-54.3 14.8-17.1 29.4-34.3 44.1-51.4 15.3-17.9 30.7-35.8 46-53.7 14.8-17.3 29.6-34.5 44.6-51.6 1.5-1.7 2.8-3.8 5.6-3.3 1.2 3.1 1.9 6.4 2 9.9z" fill="#f1c956"/><path d="m414.2 245.3c.1 7.5-1.8 14.7-3 21.9-21.6 25.4-43.3 50.7-65.1 75.9-16.9 19.6-33.5 39.4-50.7 58.8-6.9 3.6-14.3 5.8-21.9 7-1.5-2.8.8-4.4 2.1-6 14.9-17.2 29.6-34.5 44.4-51.8l44.7-52.2c13.2-15.4 26.5-30.7 39.6-46 1.6-1.9 3-4 4.8-5.7 1.5-1.3 2.7-3.3 5.1-1.9z" fill="#f0d45d"/><path d="m414.2 245.3c-5.6 1.9-7.8 7.4-11.4 11.3-9.7 10.6-18.8 21.7-28.1 32.6s-18.6 21.9-27.9 32.8c-8.6 10-17.3 20-25.9 30-9.3 10.9-18.6 21.9-27.9 32.8-4.8 5.6-9.7 11.2-14.7 16.8-2 2.2-4.1 4.3-4.8 7.3-5.8 2.2-11.8 3.5-18 4-.5-2.9 1.7-4.5 3.2-6.3 17.5-20.4 35-40.9 52.5-61.2 15.2-17.6 30.4-35.2 45.5-52.8l44.7-52.2c2.9-3.4 5.7-6.9 8.8-10.2 1.3-1.4 2.4-3.4 4.9-2.8-.2 5.9 1 11.9-.9 17.9z" fill="#efd15b"/><path d="m209.7 38.8c-2.8 6.1-8 10.4-12.1 15.5-11.3 13.6-22.8 27-34.4 40.4-9.3 10.8-18.7 21.4-28 32.2-11 12.8-21.8 25.7-32.7 38.5-8.9 10.4-18 20.7-26.9 31.1-9 10.5-17.9 21.2-26.9 31.7-2.1 2.5-4.7 4.6-6.5 7.5-1.3 2.1-2.7 1.2-3.8-.3 0-3 0-6.1 0-9.1 6.9-7.8 13.8-15.6 20.5-23.5 7-8.1 13.9-16.4 20.9-24.5 11.6-13.6 23.2-27.1 34.8-40.7 8.8-10.3 17.8-20.5 26.6-30.7 11.1-12.9 22-25.9 33.1-38.8 6.9-8 13.9-16 20.7-24 .7-.9 3.2-1.2 1.7-3.3 4.1-1.8 8.7-.9 13-2z" fill="#f18f29"/><path d="m62.1 318.1c-2.9-4-4.8-8.6-6.8-13 4.9-7.1 11-13.2 16.6-19.8 17.4-20.5 35.1-40.8 52.6-61.2 11.2-13.1 22.7-26.1 33.6-39.4.9-1.1 1.8-1.9 3.2-2.2 5.4-.4 10.7-1 16.1.4.8.5 1.1 1.2 1.1 2.1-.4 4.7-9.2 12.7-14 12.9-1.9.1-4.1-.7-5.6 1.2-1.2 3.1-.1 6.5-1 9.6-5.1 7.1-11.4 13.3-17 20-12.9 15.3-26 30.6-39.1 45.7-12.2 14-24.1 28.2-36.4 42.2-1 .7-1.7 2.1-3.3 1.5z" fill="#f19e36"/><path d="m344.4 79.7c5.4 3.1 10 7.1 14 11.9 1.4 3-1 4.7-2.5 6.4-20.5 23.5-40.7 47.3-60.9 71-1 1.1-2 2.2-3.5 2.8-6.1-2-10.9-6-15.6-10.1-.5-2.8 1.2-4.7 2.8-6.6 19.7-22.9 39.4-45.8 59-68.8 2.1-2.3 3.9-5 6.7-6.6z" fill="#f0b042"/><path d="m261.3 297c1.8 1.2 1.2 2.5.1 3.7-8.4 9.8-16.9 19.5-25.3 29.3-9.7 11.3-19.3 22.6-29 33.9-9 10.4-18 20.7-27 31.1-2.5 2.9-5 5.8-7.3 8.8-.9 1.1-1.7 2-3.1 2.1-4.9-1-9.7-2.2-14-5 8.8-11.2 18.3-21.7 27.6-32.5 13.3-15.6 26.6-31.2 40.1-46.7.5-.6 1.1-1.2 1.8-1.8 2.6-1.9 1.7-4.8 2-7.4.5-4.5-1.4-9.3 1.5-13.5 2.6.4 2 2.6 2.1 4.2.2 3.1-.1 6.2.3 9.9 5.9-4.3 8.7-10.8 14-14.8 3.7-.9 7.4-1.4 11.1-2 1.8-.3 3.6-.7 5.1.7z" fill="#f0be4d"/><path d="m113 376.9c-4.9-3.7-10-7.2-14.1-11.9.2-1.9 1.3-3.4 2.5-4.8 9.1-10.2 17.9-20.8 26.9-31.2 8.3-9.5 16.2-19.2 24.6-28.6 1.3-1.5 2.6-3.1 4.9-2.9 7.2.5 14.4-.4 21.5.6 3.4 2 1 4-.3 5.6-6 7.3-12.2 14.4-18.4 21.6-13.4 15.7-27 31.4-40.5 47.1-1.7 2.1-3 5.7-7.1 4.5z" fill="#f0b042"/><path d="m410.2 183.4c-6.4 4.1-10.3 10.7-15.3 16.1-7.6 8.3-14.6 17.1-21.9 25.6-11.4 13.3-22.7 26.7-34.1 40-8.8 10.3-17.8 20.5-26.6 30.8-9 10.5-18 21.1-27 31.7-6.8 7.9-13.6 15.8-20.4 23.7-9.6 11.2-19.1 22.3-28.7 33.5-8 9.3-16 18.5-23.9 27.8-1.6 1.9-3.7 1.1-5.6 1.3-1 0-2 0-3 0 4.2-7 10.2-12.5 15.4-18.7 11.5-13.8 23.3-27.4 35.1-41.1 8.9-10.4 18-20.7 27-31.1 11-12.8 21.8-25.7 32.7-38.5 8.6-10.1 17.3-20 25.9-30.1 11.7-13.7 23.4-27.4 35.2-41 9-10.4 17.9-20.8 27-31 2.1-2.3 3.2-5.5 6.3-6.9.6 2.6 1.3 5.2 1.9 7.9z" fill="#f0c754"/><path d="m62.1 318.1c8.8-10.2 17.6-20.5 26.4-30.7 7.1-8.2 14.4-16.4 21.4-24.6 11.2-13 22.1-26.2 33.5-39.1 4.3-4.9 7.9-10.6 13.6-14.3 2.7 6.3 1.1 12.8 1.1 19.3-1.3 4-5.1 6-7.6 8.9-23.3 27.1-46.3 54.5-69.9 81.4-2.5 2.9-5 5.7-7.4 8.7-1 1.2-1.8 2.9-3.9 2.4-2.9-3.9-5.6-7.6-7.2-12z" fill="#f1a137"/><path d="m295.5 401.9c1.4-5.5 6-8.6 9.3-12.6 15.1-18 30.7-35.5 46-53.3 14.9-17.3 29.3-35 44.4-52 5.1-5.8 9-12.7 16-16.7-2.5 9.5-4.8 19-9 27.9-8.8 11.4-18.6 22-27.9 33-13.1 15.4-26.3 30.7-39.4 46-4.5 5.3-9.3 10.3-13.6 15.8-8.5 3.9-16.5 9.3-25.8 11.9z" fill="#f0d65e"/><path d="m396.3 144.5c-6.9 5.5-11.7 13-17.6 19.4-7.2 7.9-13.9 16.3-20.9 24.5-9.6 11.3-19.3 22.6-29 33.8-4.1 4.8-8.2 9.5-12.3 14.2-.5.5-1.5.6-2.2.9-2.7-6.3-1.1-12.8-1.1-19.3 1.4-4.5 5.3-7.1 8.2-10.5 17.3-20.2 34.5-40.4 52-60.5 3-3.5 6-7.1 9.1-10.6 1.8-2.1 3.2-5.2 6.9-5 3.4 3.8 5.1 8.5 6.9 13.1z" fill="#f0be4d"/><path d="m304.5 54.7c4.5 1.1 8.1 3.8 12 6.1 1.3 1.9-.2 3.1-1.3 4.3-20.6 23.8-41 47.9-61.6 71.7-4.2 4.9-8.3 9.9-12.7 14.7-1.1 1.2-2 2.7-3.8 3.1-1.5.4-2.9.3-4.4.3-3.6-.1-5.5-1.8-5.5-5.5 0-5.7-.4-11.5.3-17.2.9-2.2 1.9-2.9 3-.2.7 1.7.1 3.6.8 5.8 3.7-2.6 5.9-6.1 8.5-9.1 20.3-23.8 40.9-47.5 61.1-71.4 1-1.1 2.3-1.8 3.6-2.6z" fill="#f0a53a"/><path d="m69.1 330c7.2-8.1 14.5-16.2 21.6-24.5 7-8.1 13.9-16.3 20.8-24.5 11.2-13.2 22.3-26.5 33.8-39.5 3.6-4 6-9.3 11.5-11.3 2.5 5.3 1.1 10.9 1 16.4-2.1 5.6-6.7 9.4-10.5 13.8-21.9 25.6-43.9 51.2-65.8 76.8-1.4 1.6-2.6 4.2-5.6 2.8-2.1-3.3-4.5-6.6-6.8-10z" fill="#f0a53a"/><path d="m344.4 79.7c-4.3 7.1-10.4 12.7-15.7 19.1-11.1 13.3-22.4 26.4-33.7 39.5-4.9 5.8-9.9 11.5-15 17.1-1.7 1.9-3.3 3.7-3.6 6.3-6.2-.4-11.7-2.7-17.1-5.6 5.3-7.8 12-14.5 18.1-21.7 13.1-15.5 26.3-30.8 39.5-46.2 5.1-5.9 9.8-12.1 15.4-17.6 4.8 2.2 8.6 5.4 12.1 9.1z" fill="#f0ac3f"/><path d="m242.6 413.8c.6-5.1 5.1-7.7 8-11.1 10.7-13 22-25.5 33-38.4 12.9-15.1 25.6-30.3 38.5-45.4 9.1-10.7 18.5-21.2 27.7-31.8 11-12.8 21.8-25.7 32.8-38.5 10-11.7 20.1-23.3 30.2-34.9.3-.3.9-.3 1.4-.4 1.9 2.1.6 4.7 1 7-4.8 8.1-11.6 14.5-17.5 21.6-15.5 18.4-31.3 36.5-47 54.7-15 17.5-30 34.9-45 52.4-14.9 17.4-29.7 34.8-44.7 52.1-3.9 4.5-7 9.7-12.4 12.7-.7 0-1.3 0-2 0-1.3.8-2.6.8-4 0z" fill="#efce5a"/><path d="m48 286.2c7.8-5.9 12.9-14.1 19.4-21.2 7.6-8.2 14.6-17.1 21.9-25.6 11.4-13.3 22.7-26.7 34.1-39.9 9.9-11.5 19.9-23 29.9-34.5.9-1.1 2.4-1.7 3.6-2.6 2.3 3.7 1.2 7.7 1 11.6-3.3 6.2-8.5 11-13 16.2-22 25.7-44.1 51.3-66.1 77-7.4 8.7-14.8 17.5-22.4 26-1.4 1.6-2.7 3.7-5.3 1.9-1.4-2.8-2.8-5.7-3.1-8.9z" fill="#f19a33"/><path d="m113 376.9c6-2.2 8.5-8.1 12.4-12.4 7.9-8.4 15.2-17.3 22.6-26.2 10.8-13.1 22.7-25.3 32.7-39 5-3 10.3-1.4 15.5-1.3 4.1 2.4 1.4 4.8-.2 6.8-6.3 7.4-12.7 14.9-19.1 22.3-15.2 17.7-30.4 35.4-45.6 53.2-1.7 2-3 4.9-6.5 4.7-4.1-2.4-8.2-4.9-11.8-8.1z" fill="#f0b445"/><path d="m389.3 131.5c-7.4 5.7-12.4 13.7-18.6 20.5-7.7 8.4-14.9 17.2-22.3 25.9-9.1 10.7-18.2 21.3-27.3 32-2 2.4-4.1 4.8-6.8 6.5-3.8-4.1-3.3-9.4-4.5-14.3 4-6.5 9.6-11.8 14.5-17.6 17.7-20.8 35.7-41.5 53.4-62.4 1.1-1.3 2-2.7 3.5-3.5 3.4 3.9 6.1 8.2 8.1 12.9z" fill="#f0bb4b"/><path d="m291.4 171.7c8.2-9.7 16.3-19.5 24.5-29.2 9.3-11 18.6-21.9 27.9-32.8 4.3-5 8.6-10 13-15 .8-.9 1.5-1.8 1.5-3.1 3.8 3.2 7.6 6.4 10 10.9-.6 4.7-4.6 7.1-7.2 10.2-13.5 15.9-27.1 31.8-40.8 47.6-4.8 5.5-9.5 11.1-14.4 16.5-1.7 1.9-3.3 4.3-6.4 4.2-3.3-2.4-6.8-4.9-8.1-9.3z" fill="#f0b445"/><path d="m277.5 44.8c4.8 1.1 9.6 2.6 14 4.8.9 2.3-.8 3.7-2.1 5.2-15.5 18.6-31.5 36.8-47.2 55.2-4.9 5.8-10 11.6-14.9 17.4-1.4 1.7-2.7 3.4-4.9 4-4.6.5-9.2.7-13.7-.1-3.3-2.2-1.2-4.4.2-6.2 4.4-5.2 8.7-10.4 13.2-15.5 15.7-17.9 31-36.1 46.6-54.2 3.2-3.2 6.2-6.8 8.8-10.6z" fill="#f19e36"/><path d="m51.1 295.1c5-.5 6.6-5.2 9.3-8.2 9.2-10.2 17.8-20.8 26.7-31.3 11.4-13.5 22.9-26.9 34.4-40.3 7.1-8.3 14.2-16.5 21.5-24.6 4.6-5.1 8.2-11.2 13.9-15.4 1.7 2.4.9 5.7 2.9 8.1-3.6 6.4-9 11.4-13.6 17-11.1 13.3-22.4 26.4-33.7 39.6-8.6 10-17.2 20-25.9 30-9.3 10.7-18.7 21.4-28 32.2-1 1.2-2 2.1-3.4 2.8-1.9-3-3-6.4-4.1-9.9z" fill="#f19c34"/><path d="m223.7 130.4c14.5-16.9 29-33.8 43.5-50.8 7.5-8.8 15-17.6 22.4-26.4.8-1 1.3-2.3 2-3.4 4.9.2 8.4 3.9 12.9 5.1-10.4 12.2-20.8 24.4-31.1 36.6-12.8 15.1-25.6 30.2-38.4 45.3-.5.6-1.1 1.3-1.7 1.8-.8.7-1.4 2.1-2.8 1.4-1.1-.5-.6-1.8-.7-2.7-.4-2.2.9-4.7-1-6.6-1.9 1.1-3.5 1.3-5.1-.3z" fill="#f1a137"/><path d="m157 298.1c-7.1 6.8-13 14.7-19.5 22.1-7.3 8.2-14.4 16.6-21.6 24.9-5.7 6.6-11.3 13.2-16.9 19.8-4-3.3-7.7-6.9-11-11 21.1-23.8 41.6-48 62.2-72.2 1.3-1.5 2.6-3 4.3-4.1 1.2-.8 2.4-1.4 3.2.4.8 2.5.3 5 .6 7.5-.4 4.3 1.1 8.7-1.3 12.6z" fill="#f0ac3f"/><path d="m224.7 321.2c-3.7 6.5-9.3 11.5-14 17.1-11.3 13.7-23 27.1-34.6 40.6-6 7-12 14-18.1 21-.5.5-1.5.6-2.2.9-4.4-.5-8-3.2-11.9-5 2.3-5.3 6.7-9 10.3-13.2 16.8-19.3 33.2-38.7 49.9-58.1 1.5-1.7 2.6-3.9 5.1-4.6 5.2 0 10.5-1.7 15.5 1.3z" fill="#f0bb4b"/><path d="m163.8 153.6c6.8-9.8 15.2-18.2 22.8-27.3 9.4-11.3 19-22.4 28.6-33.5 8.9-10.4 18-20.7 26.9-31.1 5.9-6.9 11.6-13.9 17.5-20.9 3.2-.1 6.1.8 9 1.9 1.5 2.8-.8 4.4-2.1 6-14.9 17.2-29.5 34.5-44.4 51.7-14.6 17-29.1 34-43.7 51-1.1 1.3-2 2.7-3.8 3.1-3.7.3-7.4 1.3-10.8-.9z" fill="#f19a33"/><path d="m381.3 118.6c-2.7 6.2-8 10.4-12.1 15.5-11.2 13.6-22.6 27.1-34.4 40.3-8 9-15.1 18.9-24.1 27-3.5-3.1-4.5-7.4-5.5-11.8 17.9-20.5 35.4-41.3 53.2-61.8 5.3-6.1 10-12.8 16-18.2 3.2 2.2 4.6 5.9 6.9 9z" fill="#efb948"/><path d="m156.6 277.2c-8.9 8.1-15.9 18.1-24 27-7.1 7.8-13.6 16.1-20.4 24.2-6 7-12 14.1-18.1 21-1.7 1.9-3.1 4.4-6.1 4.7-2.8-1.6-4.2-4.5-6.1-7 11.2-13.7 22.9-27 34.4-40.4 14.1-16.5 28.6-32.6 42.2-49.5.6-.8 1.3-1.5 2.3-1.8 3.8-.6 7.6-.9 11.4.2 2.3 1.9.7 3.5-.4 5-2.4 3.1-4.6 6.3-7.1 9.3-5.3-.4-6.7 3.4-8.1 7.3z" fill="#f0a93d"/><path d="m207.7 321.2c-3.4 6.3-8.7 11-13.2 16.5-11.3 13.6-22.6 27.1-34.4 40.2-5.4 6-10.1 12.7-16.2 18-4.1-1.2-7.5-3.7-11-6 4.1-6.5 9.6-11.8 14.5-17.6 15.4-18.1 30.9-35.9 46.4-53.9 1.6-1.9 2.8-5.5 6.6-3 .1 4.9 5 3.7 7.3 5.8z" fill="#efb848"/><path d="m175.8 153.6c4.2-7.2 10.4-12.8 15.6-19.2 11.1-13.4 22.4-26.5 33.7-39.7 8.8-10.3 17.9-20.3 26.5-30.8 5.7-7 12.9-12.8 16.9-21.2 3 .7 6 1.4 9 2.1-1 6.6-6.7 10-10.5 14.6-11.1 13.6-22.6 26.7-34 40-7.1 8.3-14.3 16.5-21.5 24.6-1.7 1.9-3.5 3.6-3.8 6.2-1.9 2.4-6.1.4-7.3 4.1-6.4 6.1-11.4 13.4-17.5 19.9-2.4.7-4.9 1.1-7.1-.6z" fill="#f19c34"/><path d="m332.4 70.7c-2 5.7-6.8 9.3-10.4 13.7-13.6 16.4-27.6 32.5-41.5 48.6-5.9 6.9-11.8 13.8-17.7 20.7-.9 1.1-2 1.8-3.4 1.8-3.1 2.1-6.1.3-9.1-.4-2.5-2.3-.4-3.8.9-5.4 9.3-11.3 19-22.2 28.4-33.4 14.6-17.2 29.7-34 43.9-51.6 3.3 1.4 6.4 3.3 8.9 6z" fill="#f0a93d"/><path d="m248.6 413.8c11.3-13.2 22.7-26.3 34-39.5 12.9-15.1 25.6-30.3 38.5-45.4 8.9-10.4 18-20.7 27-31.1 11.3-13.2 22.5-26.4 33.8-39.6 8.9-10.4 17.9-20.8 27-31.1 2.1-2.3 3.3-5.5 6.3-6.9v7c-7.3 5.8-12.4 13.7-18.6 20.5-9.2 10.2-17.8 20.8-26.7 31.3-9.3 10.9-18.6 21.9-28 32.8-8.9 10.4-18 20.7-26.9 31.1-9.4 10.9-18.6 21.9-28 32.8-8.6 10-17.2 20.1-25.9 30-2 2.2-3.8 4.5-5.5 7-2.3.7-4.6 1.5-7 1.1z" fill="#efce5a"/><path d="m323.4 64.8c.1 3.6-2.7 5.6-4.6 7.9-14.9 17.5-30 34.8-45 52.2-7.7 8.9-15.2 17.9-22.8 26.8-.6.7-.9 1.7-1.3 2.6-3.8 2.5-7.4.9-11-.7.7-4.1 4.4-6.1 6.7-9 10.6-12.9 21.7-25.4 32.6-38 12.6-14.6 25.3-29.3 37.8-44 .4-.5.4-1.2.6-1.9 2.9.5 4.7 2.7 7 4.1z" fill="#f0a73c"/><path d="m159.8 256.3c-1.4 5.4-6.1 8.6-9.4 12.5-11 13.3-22.7 26.1-34 39.3-10.6 12.4-21.1 24.8-31.7 37.3-.8 1-1.7 1.6-2.9 1.6-2.6-1.8-3.9-4.7-5.8-7 5.5-1.8 7.6-7.2 11-11 11.9-13.2 23.3-26.9 34.8-40.5 10.8-12.7 21.5-25.4 32.3-38.1.7-.9 1.7-1.5 2.6-2.2 2 2.5 1.2 5.8 3.1 8.1z" fill="#f0a73c"/><path d="m374.3 109.5c-3.2 6.3-8.4 11-12.8 16.3-13.1 15.5-26.3 30.9-39.5 46.4-4.4 5.2-8.8 10.3-13.2 15.4-.9 1-1.9 1.8-3.4 1.8-3.6-2-5.4-5.1-5.8-9 6.4-2.5 9.2-8.8 13.5-13.4 7.6-8.2 14.6-16.9 21.9-25.5 9.3-10.9 18.6-21.8 27.9-32.7 1.8-2.1 3.7-4.2 5.6-6.3 2.5 1.8 4.5 4.1 5.8 7z" fill="#efb647"/><path d="m199.6 315.1c-1.3 0-2.2.7-3 1.6-8.5 9.9-17 19.8-25.5 29.7-7.4 8.7-14.7 17.4-22.3 25.9-5.3 5.9-9.5 12.7-16 17.6-3-1.2-5.9-2.5-8-5 6.9-5.5 11.7-13 17.6-19.4 7.3-8 14.1-16.5 21.2-24.8 9.2-10.8 18.4-21.5 27.5-32.4 2.4-2.9 6-4.9 6.6-9.1 1.6-1.1 2.7-.1 2.9 1.3.7 4.9 2 9.9-1 14.6z" fill="#efb647"/><path d="m321.4 389.9c.5-4.7 4.5-7.3 7.2-10.4 13.2-15.7 26.8-31 40.2-46.5 9.9-11.5 19.8-23.1 29.7-34.6 1.1-1.2 2.5-2.2 3.7-3.3-5.3 15.3-13.6 29-22.8 42.2-12.6 17.9-28.6 32.4-46.3 45.1-3.7 2.8-7.8 5-11.7 7.5z" fill="#efd961"/><path d="m242.6 413.8h4c-1.4 1.7-3.3.8-5 1 .4-.3.7-.6 1-1z" fill="#efd15b"/><path d="m199.6 315.1c.1-4.3.2-8.6.1-12.9 0-1.3.6-3.3-2-2.9-5.7 0-11.3 0-17 0-6.4-.1-12.8-.1-19.2-.2-1.6 0-3.3.6-4.6-1 0-4.2 0-8.5 0-12.7.9-3.9.4-7.9.3-11.9-.1-3.1 1-3.7 4-3.9 24.2-1.9 48.4-.1 72.6-1 3.7-.1 7.3-.6 10.9-.9 8.5-.2 15.3-4.3 20.7-10.3 6.4-6.9 10.1-15.4 10.6-25-.2-6.4.6-12.9-1.3-19.2-1.2-5.5-3.6-10.5-6.9-15.1-3-3.4-5.9-7-10.2-9-3-1.6-6-3.3-9.5-3.6-4.7-1.1-9.4-.7-14.2-.8-5.5.2-11 .2-16.5 0-6 .2-12 .2-18 0-5.3.1-10.5.1-15.8.1-2.1 0-4.3.1-6.1-1.5-6 0-12 0-18 0-1.6-.1-2.8-.6-2.7-2.6.1-1.8-.1-3.6-.2-5.4.4-4.3.4-8.6 0-13 .1-.5.3-1 .2-1.5-.9-5.3.9-8.1 6.7-7.4 4 .4 8 .4 12 0h8c1.8-1.9 4.2-1.6 6.5-1.6 7.9-.2 7.9-.2 8-8.3 0-3.1-.3-6.3 1.3-9.1-.3-3.1.9-4.5 4.2-4.1 1.3.2 2.6-.1 4-.1h16c1.7.1 3.3.1 5 .2.1 5.8.5 11.6.1 17.4-.3 4.8 1.2 6.8 6 5.9 1.3-.2 2.6-.2 4-.3 3.7.2 7.3.5 11 .7 3.2.4 6.5.8 9.7 1.3 5.7 2 11.4 4.1 17.1 6.1 5 3.3 10 6.6 15 10 2.7 2.9 5.4 5.8 8.1 8.7 1.9 3 3.9 6 5.8 9 1.8 4 3.6 8 5.3 11.9 1.2 5 2.5 10 3.7 15 0 7 0 14-.1 20.9-2.2 9.7-4.7 19.2-9.9 27.8-9.4 15.6-23 25.6-40.3 30.9-.9.3-1.8.7-2.7 1-5.6.7-11.2 1.5-16.7 2.2-5 2.1-9.9 2.2-14.9.2-1.9 5.7-.7 11.5-.7 17.3 0 3.3-.9 4.9-4.3 4.6-5.7 0-11.3 0-17 0-.7-.1-1.3-.3-2-.1-4.9 1.2-6.8-1-6.1-5.8z" fill="#fff"/><path d="m159.8 256.3c-1.6-.1-2.8-.6-2.7-2.6.1-1.8-.1-3.6-.2-5.4 0-6 0-12 0-18 0-7 0-14 0-21 .4-3.8.5-7.6 0-11.5.2-.3.3-.8.5-.8 8.3.5 16.4-1.8 24.7-1.2 2 .1 4 .2 5.3 2.1 1.9 7 .6 14.2.8 21.3.2 6.7.1 13.5 0 20.2.3 4.3.2 8.5 0 12.8-.1 3.5-1.9 5.5-5.5 5.5-3.4 0-6.9.9-10-1.4-4.2 0-8.6 0-12.9 0z" fill="#fffffe"/><path d="m186.8 198.3c-.4-.3-.7-.9-1.1-.9-9.6-.1-19.3-.9-28.9.4 1.9-2.9 4.9-1.4 7.3-1.4 3.2-.1 5.5-.4 7.2-3.8 1.6-3.3 5.9-4.9 6.4-9.2h21.9c-1.9 7-6.1 12-12.8 14.9z" fill="#f1a239"/><path d="m229.7 299.4c5-.1 10-.1 14.9-.2-3 6-8.4 10.1-12.1 15.5-.4.6-1.2 1.3-2.1.8s-.7-1.4-.7-2.2c-.1-4.7 0-9.3 0-13.9z" fill="#f0bc4d"/><path d="m275.7 212.1c2.7 6.9 2.5 14 1.7 21.2-10.7 11.6-20.8 23.6-30.8 35.8-4.1.8-8.2 1-12.3 1-22.2 0-44.4 0-66.6 0-10.2 0-10.2 0-10.2 10 0 1.8.4 3.7-.5 5.4-.1-2.8-.2-5.5-.3-8.3.4-7.9.4-7.9 8.2-8 4.4-2.6 9.2-1.1 13.8-1.4 4 .1 8-.1 12 0 5.3.1 10.6-.1 15.8.1 3.3.2 6.6.2 10 .2 11.7 0 11.5-.1 19-9.1 13.1-15.9 26.7-31.4 40.2-46.9z" fill="#efb748"/><path d="m178.8 269.1c-4.7 0-9.3 0-14 0 0-4.3 4.1-6 5.8-9.2.7-1.2 2.2-2 2.1-3.7 3.5-.1 7-.3 10.4-.2 2.6.1 3.5-.8 3.4-3.4-.1-4.5.1-9 .2-13.4 15.8-18.7 31.9-37.2 47.8-55.8 5-.4 10.1-.5 15 1.1 1.6 2 .3 3.4-.9 4.8-14.4 16.6-28.6 33.4-43 50.1-7.1 8.3-14.3 16.5-21.3 24.9-1.5 2-3.2 3.8-5.5 4.8z" fill="#f0ac3f"/><path d="m199.6 134.5c.1 5.3 0 10.5.2 15.8.1 2.4-.4 3.7-3.2 3.6-4.3-.2-8.5-.2-12.8-.3.2-4.5 4.1-6.7 6.5-9.7 2.7-3.3 5-7.4 9.3-9.4z" fill="#f19d35"/><path d="m275.7 212.1c-1.3 6.1-6.7 9.2-10.2 13.6-11.6 14.2-24.3 27.4-35.5 41.9-1.3 1.7-2.7 1.6-4.4 1.6-6 0-11.9 0-17.9 0-.1-3.4 2.5-5.2 4.4-7.4 17.5-20.5 35.2-40.8 52.7-61.3 1.1-1.3 1.9-2.7 3.8-3 3.7 4.1 6.1 9 7.1 14.6z" fill="#f0b445"/><path d="m268.6 197.4c-10.2 13-21.4 25.2-32.1 37.7-9.7 11.2-19.1 22.7-28.7 34.1-5.6 0-11.3 0-16.9 0-.5-2.9 1.7-4.5 3.3-6.3 17.5-20.4 35-40.8 52.5-61.1 3.9-4.5 7.3-9.5 12.1-13.2 3.9 1.9 7.2 4.9 9.8 8.8z" fill="#f0b042"/><path d="m258.6 188.5c-1.2 4.2-4.9 6.6-7.5 9.7-16.8 19.9-34.1 39.5-51 59.4-3.2 3.8-7 7.1-9.3 11.6-4 0-8 0-12 0 13.1-15.2 26.2-30.5 39.3-45.7 10.1-11.7 20.1-23.5 30.3-35.2.9-1.1 1.4-2.2 1.3-3.6 3.2.5 6.2 1.7 8.9 3.8z" fill="#f0ae41"/><path d="m234.6 183.5c-.7 5.1-5.1 7.6-8 11.1-11 13.3-22.5 26.2-34 39.2-1.8 2-2.4 5.3-5.9 5.6 0-6.7 0-13.3 0-20 10.7-11.6 20.7-23.8 30.8-35.8 5.8-.1 11.5-.1 17.1-.1z" fill="#f0a93d"/><path d="m217.7 183.5c-.2 3.5-3 5.4-5 7.8-7.2 8.6-14.5 17-21.9 25.5-1.1 1.2-2.1 2.6-4 2.6 0-7 0-14 0-21 5.2-4.2 9.5-9.2 12.9-14.9z" fill="#f0a63b"/><path d="m246.6 269.1c1.6-5.9 6.4-9.4 10-13.8 5.6-6.8 11.6-13.4 17.5-20 .9-1 1.8-2 3.3-2-1.8 18.7-14.3 33.3-30.8 35.8z" fill="#f0b949"/></svg>