<svg xmlns="http://www.w3.org/2000/svg" width="24" height="16" viewBox="0 0 24 16">
  <g id="cloche" transform="translate(0 -85.333)">
    <g id="Group_11" data-name="Group 11" transform="translate(0 85.333)">
      <g id="Group_10" data-name="Group 10" transform="translate(0 0)">
        <path id="Path_9" data-name="Path 9" d="M101.2,187.908a8.488,8.488,0,0,0-3.64,3.393.5.5,0,1,0,.865.5,7.5,7.5,0,0,1,3.213-3,.5.5,0,0,0-.438-.9Z" transform="translate(-92.927 -183.051)" fill="#fff"/>
        <path id="Path_10" data-name="Path 10" d="M23.5,97.333H22.475a10.5,10.5,0,0,0-9.1-9.9,1.5,1.5,0,1,0-2.745,0,10.5,10.5,0,0,0-9.1,9.9H.5a.5.5,0,0,0-.5.5v.5a3.789,3.789,0,0,0,.639,2.108,2,2,0,0,0,1.664.891H21.7a2,2,0,0,0,1.665-.891A3.791,3.791,0,0,0,24,98.334v-.5A.5.5,0,0,0,23.5,97.333Zm-11.5-11a.5.5,0,1,1-.5.5A.5.5,0,0,1,12,86.333Zm0,2a9.5,9.5,0,0,1,9.475,9H2.525A9.5,9.5,0,0,1,12,88.333Zm11,10a2.792,2.792,0,0,1-.471,1.554,1,1,0,0,1-.832.445H2.3a1,1,0,0,1-.832-.446A2.793,2.793,0,0,1,1,98.334H23Z" transform="translate(0 -85.333)" fill="#fff"/>
      </g>
    </g>
  </g>
</svg>
