<svg xmlns="http://www.w3.org/2000/svg" xmlns:xlink="http://www.w3.org/1999/xlink" width="80" height="45" viewBox="0 0 80 45">
  <defs>
    <linearGradient id="linear-gradient" y1="0.5" x2="0.937" y2="0.5" gradientUnits="objectBoundingBox">
      <stop offset="0" stop-color="#5cc5c1"/>
      <stop offset="1" stop-color="#1379b6"/>
    </linearGradient>
    <filter id="Ellipse_6" x="0" y="0" width="80" height="45" filterUnits="userSpaceOnUse">
      <feOffset input="SourceAlpha"/>
      <feGaussianBlur stdDeviation="5" result="blur"/>
      <feFlood flood-color="#5cc5c1" flood-opacity="0.451"/>
      <feComposite operator="in" in2="blur"/>
      <feComposite in="SourceGraphic"/>
    </filter>
  </defs>
  <g id="Component_11_1" data-name="Component 11 – 1" transform="translate(15 15)">
    <g transform="matrix(1, 0, 0, 1, -15, -33)" filter="url(#Ellipse_6)">
      <circle id="Ellipse_6-2" data-name="Ellipse 6" cx="25" cy="25" r="21" transform="translate(15 15)" fill="url(#linear-gradient)"/>
    </g>
    <g id="Group_35" data-name="Group 35"  transform="translate(-165 -625)">
      <g id="Group_32" data-name="Group 32" transform="translate(177 636.781)">
        <g id="Group_31" data-name="Group 31" transform="translate(0 0)">
          <path id="Path_12" data-name="Path 12" d="M25.671,352.254a.54.54,0,0,0-.457-.254H.537a.536.536,0,0,0-.48.776,4.393,4.393,0,0,0,3.952,2.443H21.742a4.4,4.4,0,0,0,3.953-2.442A.542.542,0,0,0,25.671,352.254Z" transform="translate(0 -352)" fill="#fff"/>
        </g>
      </g>
      <g id="Group_34" data-name="Group 34" transform="translate(179.211 623.906)">
        <g id="Group_33" data-name="Group 33" transform="translate(0 0)">
          <path id="Path_13" data-name="Path 13" d="M56.1,98.257a1.609,1.609,0,1,0-2.942,0,10.7,10.7,0,0,0-9.193,9.545H65.292A10.708,10.708,0,0,0,56.1,98.257Zm-1.972,3.106a7.491,7.491,0,0,0-6.582,4.991.538.538,0,0,1-.506.358.545.545,0,0,1-.178-.03.538.538,0,0,1-.328-.685,8.561,8.561,0,0,1,7.524-5.706.545.545,0,0,1,.571.5A.536.536,0,0,1,54.129,101.363Z" transform="translate(-43.966 -96)" fill="#fff"/>
        </g>
      </g>
    </g>
  </g>
</svg>
