<svg width="72" height="72" viewBox="0 0 72 72" fill="none" xmlns="http://www.w3.org/2000/svg">
<defs>
<linearGradient id="paint0_linear_1_788" x1="65.069" y1="23.489" x2="65.069" y2="34.686" gradientUnits="userSpaceOnUse">
<stop offset="1" stop-color="#72BAA1"/>
<stop offset="1" stop-color="#7DC250"/>
</linearGradient>
<linearGradient id="paint1_linear_1_788" x1="6.60485" y1="23.485" x2="6.60485" y2="34.684" gradientUnits="userSpaceOnUse">
<stop offset="1" stop-color="#72BAA1"/>
<stop offset="1" stop-color="#7DC250"/>
</linearGradient>
<linearGradient id="paint2_linear_1_788" x1="35.8355" y1="29.087" x2="35.8355" y2="71.672" gradientUnits="userSpaceOnUse">
<stop offset="1" stop-color="#72BAA1"/>
<stop offset="1" stop-color="#7DC250"/>
</linearGradient>
<linearGradient id="paint3_linear_1_788" x1="35.8575" y1="14.214" x2="35.8575" y2="33.775" gradientUnits="userSpaceOnUse">
<stop offset="1" stop-color="#72BAA1"/>
<stop offset="1" stop-color="#7DC250"/>
</linearGradient>
<linearGradient id="paint4_linear_1_788" x1="35.8335" y1="0" x2="35.8335" y2="48.1" gradientUnits="userSpaceOnUse">
<stop offset="1" stop-color="#72BAA1"/>
<stop offset="1" stop-color="#7DC250"/>
</linearGradient>
</defs>
<path d="M67.467 29.086C67.4701 28.124 67.2037 27.1803 66.6978 26.3619C66.192 25.5436 65.467 24.8833 64.605 24.456L62.671 23.489V34.686L64.605 33.719C65.4675 33.2916 66.1929 32.6309 66.6988 31.8119C67.2047 30.993 67.4708 30.0486 67.467 29.086Z" fill="url(#paint0_linear_1_788)"/>
<path d="M7.06098 33.717L8.99498 34.684V23.485L7.06098 24.452C6.2048 24.8857 5.48557 25.5482 4.98314 26.366C4.4807 27.1837 4.21472 28.1247 4.21472 29.0845C4.21472 30.0443 4.4807 30.9852 4.98314 31.803C5.48557 32.6207 6.2048 33.2833 7.06098 33.717Z" fill="url(#paint1_linear_1_788)"/>
<path d="M66.4831 37.473L36.7721 52.33C36.4805 52.4757 36.159 52.5516 35.8331 52.5516C35.5071 52.5516 35.1856 52.4757 34.8941 52.33L5.18305 37.473C3.62183 36.6991 2.30871 35.5032 1.3926 34.021C0.476498 32.5388 -0.00592275 30.8295 5.48839e-05 29.087V60.572C0.00217386 63.5152 1.17232 66.3373 3.25351 68.4185C5.3347 70.4997 8.1568 71.6698 11.1001 71.672H60.5711C63.5143 71.6698 66.3364 70.4997 68.4176 68.4185C70.4988 66.3373 71.6689 63.5152 71.6711 60.572V29.087C71.6765 30.83 71.1932 32.5396 70.2762 34.0219C69.3592 35.5041 68.0451 36.6997 66.4831 37.473Z" fill="url(#paint2_linear_1_788)"/>
<path d="M33.968 25.508C33.5743 25.9016 33.0403 26.1226 32.4835 26.1226C31.9268 26.1226 31.3928 25.9016 30.999 25.508L26.452 20.961L23.061 24.352L32.484 33.775L48.654 17.605L45.263 14.214L33.968 25.508Z" fill="url(#paint3_linear_1_788)"/>
<path d="M58.472 36.785V8.846C58.4726 7.68431 58.2443 6.53388 57.8001 5.46047C57.3559 4.38706 56.7045 3.41171 55.8832 2.59018C55.0618 1.76864 54.0866 1.11704 53.0133 0.672599C51.94 0.228161 50.7896 -0.000392965 49.6279 1.4148e-06H22.0409C20.8791 -0.000655856 19.7285 0.227704 18.655 0.672024C17.5814 1.11634 16.606 1.76791 15.7844 2.58947C14.9629 3.41103 14.3113 4.38646 13.867 5.46001C13.4227 6.53355 13.1943 7.68414 13.1949 8.846V36.785L35.8329 48.1L58.472 36.785ZM30.9989 38.229L18.606 25.836C18.2124 25.4422 17.9913 24.9082 17.9913 24.3515C17.9913 23.7948 18.2124 23.2608 18.606 22.867L24.967 16.507C25.3607 16.1134 25.8947 15.8923 26.4514 15.8923C27.0082 15.8923 27.5422 16.1134 27.936 16.507L32.483 21.054L43.7769 9.76C44.1707 9.36643 44.7047 9.14535 45.2615 9.14535C45.8182 9.14535 46.3522 9.36643 46.7459 9.76L53.1069 16.12C53.5005 16.5138 53.7216 17.0478 53.7216 17.6045C53.7216 18.1612 53.5005 18.6952 53.1069 19.089L33.968 38.229C33.5742 38.6226 33.0402 38.8437 32.4834 38.8437C31.9267 38.8437 31.3927 38.6226 30.9989 38.229Z" fill="url(#paint4_linear_1_788)"/>
</svg>
