<svg width="70" height="70" viewBox="0 0 70 70" fill="none" xmlns="http://www.w3.org/2000/svg">
<defs>
<filter id="filter0_d_1_852" x="0" y="0" width="70" height="70" filterUnits="userSpaceOnUse" color-interpolation-filters="sRGB">
<feFlood flood-opacity="0" result="BackgroundImageFix"/>
<feColorMatrix in="SourceAlpha" type="matrix" values="0 0 0 0 0 0 0 0 0 0 0 0 0 0 0 0 0 0 127 0" result="hardAlpha"/>
<feOffset/>
<feGaussianBlur stdDeviation="5"/>
<feColorMatrix type="matrix" values="0 0 0 0 0.47451 0 0 0 0 0.745098 0 0 0 0 0.454902 0 0 0 0.451 0"/>
<feBlend mode="normal" in2="BackgroundImageFix" result="effect1_dropShadow_1_852"/>
<feBlend mode="normal" in="SourceGraphic" in2="effect1_dropShadow_1_852" result="shape"/>
</filter>
<linearGradient id="paint0_linear_1_852" x1="10" y1="35" x2="56.85" y2="35" gradientUnits="userSpaceOnUse">
<stop offset="1" stop-color="#73BAA6"/>
<stop offset="1" stop-color="#79BE74"/>
</linearGradient>
</defs>
<g filter="url(#filter0_d_1_852)">
<path d="M35 60C48.8071 60 60 48.8071 60 35C60 21.1929 48.8071 10 35 10C21.1929 10 10 21.1929 10 35C10 48.8071 21.1929 60 35 60Z" fill="url(#paint0_linear_1_852)"/>
</g>
<path d="M42.358 31.6751L36.9 27.3091C36.3554 26.8941 35.6901 26.6686 35.0055 26.667C34.3209 26.6654 33.6545 26.8877 33.108 27.3001L27.65 31.6751C27.2482 32.0261 26.9385 32.4702 26.7481 32.9686C26.5578 33.4671 26.4925 34.0046 26.558 34.5341L27.608 40.8171C27.7412 41.5136 28.1092 42.1434 28.6506 42.6015C29.1919 43.0595 29.874 43.3181 30.583 43.3341H39.416C40.1252 43.3115 40.8059 43.0498 41.3475 42.5914C41.8891 42.1329 42.2597 41.5048 42.399 40.8091L43.449 34.5261C43.5061 33.9984 43.437 33.4647 43.2473 32.969C43.0576 32.4733 42.7528 32.0298 42.358 31.6751ZM35.625 40.0001C35.625 40.1658 35.5591 40.3248 35.4419 40.442C35.3247 40.5592 35.1658 40.6251 35 40.6251C34.8342 40.6251 34.6753 40.5592 34.5581 40.442C34.4408 40.3248 34.375 40.1658 34.375 40.0001V37.5001C34.375 37.3343 34.4408 37.1753 34.5581 37.0581C34.6753 36.9409 34.8342 36.8751 35 36.8751C35.1658 36.8751 35.3247 36.9409 35.4419 37.0581C35.5591 37.1753 35.625 37.3343 35.625 37.5001V40.0001Z" fill="white"/>
</svg>
