<svg width="150" height="156" viewBox="0 0 150 156" fill="none" xmlns="http://www.w3.org/2000/svg">
<defs>
<linearGradient id="paint0_linear_1_460" x1="-24.6549" y1="-6.7185" x2="15.9691" y2="144.577" gradientUnits="userSpaceOnUse">
<stop offset="1" stop-color="#6CB6D2"/>
<stop offset="1" stop-color="#7FC342"/>
</linearGradient>
<linearGradient id="paint1_linear_1_460" x1="-10.5694" y1="-23.4867" x2="136.169" y2="89.9986" gradientUnits="userSpaceOnUse">
<stop offset="1" stop-color="#6CB6D2"/>
<stop offset="1" stop-color="#7FC342"/>
</linearGradient>
<linearGradient id="paint2_linear_1_460" x1="4.93587" y1="-40.2706" x2="165.965" y2="32.3519" gradientUnits="userSpaceOnUse">
<stop offset="1" stop-color="#6CB6D2"/>
<stop offset="1" stop-color="#7FC342"/>
</linearGradient>
<linearGradient id="paint3_linear_1_460" x1="-25.3295" y1="-7.57279" x2="135.733" y2="65.5728" gradientUnits="userSpaceOnUse">
<stop offset="1" stop-color="#6CB6D2"/>
<stop offset="1" stop-color="#7FC342"/>
</linearGradient>
<linearGradient id="paint4_linear_1_460" x1="-24.9007" y1="-6.64029" x2="134.26" y2="35.9433" gradientUnits="userSpaceOnUse">
<stop offset="1" stop-color="#6CB6D2"/>
<stop offset="1" stop-color="#7FC342"/>
</linearGradient>
<linearGradient id="paint5_linear_1_460" x1="7.45516" y1="-41.6194" x2="55.6169" y2="112.575" gradientUnits="userSpaceOnUse">
<stop offset="1" stop-color="#6CB6D2"/>
<stop offset="1" stop-color="#7FC342"/>
</linearGradient>
<linearGradient id="paint6_linear_1_460" x1="-8.67933" y1="-24.1642" x2="127.328" y2="103.113" gradientUnits="userSpaceOnUse">
<stop offset="1" stop-color="#6CB6D2"/>
<stop offset="1" stop-color="#7FC342"/>
</linearGradient>
<linearGradient id="paint7_linear_1_460" x1="21.3499" y1="-56.6155" x2="69.4995" y2="97.5695" gradientUnits="userSpaceOnUse">
<stop offset="1" stop-color="#6CB6D2"/>
<stop offset="1" stop-color="#7FC342"/>
</linearGradient>
<linearGradient id="paint8_linear_1_460" x1="20.4459" y1="-55.6359" x2="179.607" y2="-13.052" gradientUnits="userSpaceOnUse">
<stop offset="1" stop-color="#6CB6D2"/>
<stop offset="1" stop-color="#7FC342"/>
</linearGradient>
<linearGradient id="paint9_linear_1_460" x1="25.8237" y1="-61.4581" x2="163.228" y2="64.3208" gradientUnits="userSpaceOnUse">
<stop offset="1" stop-color="#6CB6D2"/>
<stop offset="1" stop-color="#7FC342"/>
</linearGradient>
<linearGradient id="paint10_linear_1_460" x1="116.724" y1="145.822" x2="103.067" y2="145.732" gradientUnits="userSpaceOnUse">
<stop offset="1" stop-color="#6CB6D2"/>
<stop offset="1" stop-color="#7FC342"/>
</linearGradient>
</defs>
<path d="M125.017 74.916V82.165C125.02 82.2736 124.981 82.3793 124.908 82.4603C124.836 82.5413 124.735 82.5916 124.627 82.601C122.287 82.901 119.993 83.175 117.699 83.473C116.873 83.588 116.047 83.656 115.244 83.817C115.096 83.8565 114.96 83.932 114.848 84.0367C114.736 84.1413 114.652 84.2719 114.602 84.417C113.598 88.4012 111.988 92.2078 109.83 95.704C109.555 96.163 109.715 96.415 109.968 96.759C111.62 98.915 113.268 101.095 114.9 103.228C115.119 103.514 115.226 103.87 115.201 104.229C115.175 104.588 115.019 104.926 114.762 105.178L105.425 114.515C105.17 114.769 104.831 114.921 104.472 114.942C104.113 114.963 103.758 114.852 103.475 114.63C101.365 113.001 99.231 111.35 97.143 109.675C96.9679 109.482 96.7258 109.362 96.4658 109.341C96.2058 109.319 95.9473 109.398 95.743 109.56C92.3389 111.604 88.6407 113.113 84.778 114.033C84.5438 114.059 84.3283 114.173 84.175 114.352C84.0216 114.531 83.942 114.762 83.952 114.997C83.631 117.52 83.287 120.044 82.943 122.59C82.8767 123.06 82.643 123.491 82.2849 123.803C81.9268 124.116 81.4681 124.288 80.993 124.29H68.629C68.1507 124.288 67.6896 124.112 67.331 123.796C66.9724 123.479 66.7407 123.043 66.679 122.569C66.518 121.215 66.335 119.885 66.179 118.531C66.018 117.223 65.879 115.916 65.651 114.631C65.6114 114.483 65.536 114.347 65.4313 114.235C65.3267 114.123 65.1961 114.038 65.051 113.989C61.1753 113.009 57.4651 111.463 54.04 109.401C53.604 109.126 53.375 109.332 53.076 109.562C50.851 111.305 48.626 113.026 46.4 114.769C46.1728 114.945 45.8896 115.032 45.6028 115.016C45.3159 114.999 45.0449 114.878 44.84 114.677L35.113 104.95C34.9132 104.745 34.7921 104.476 34.7711 104.191C34.7501 103.906 34.8304 103.622 34.998 103.39C36.627 101.257 38.256 99.077 39.93 96.944C40.1446 96.731 40.2709 96.445 40.2837 96.143C40.2965 95.841 40.1948 95.5453 39.999 95.315C37.9575 91.98 36.4398 88.3514 35.499 84.556C35.4809 84.3351 35.3819 84.1287 35.221 83.9763C35.0601 83.8238 34.8486 83.7361 34.627 83.73C31.759 83.386 28.915 83.019 26.001 82.652C25.715 82.6185 25.4515 82.4805 25.261 82.2645C25.0706 82.0486 24.9666 81.7699 24.969 81.482V75.682C24.9704 75.3721 25.094 75.0753 25.3132 74.8561C25.5323 74.637 25.8291 74.5133 26.139 74.512H47.061C47.245 76.095 47.361 77.678 47.612 79.261C48.7412 85.7173 52.1013 91.5724 57.1061 95.8046C62.1109 100.037 68.4427 102.378 74.9969 102.418C81.5511 102.459 87.9117 100.198 92.969 96.0286C98.0263 91.8593 101.459 86.0467 102.669 79.605C102.915 78.1401 103.068 76.6612 103.128 75.177C103.174 74.677 103.266 74.42 103.862 74.42C110.767 74.4426 117.672 74.4503 124.577 74.443C124.695 74.4557 124.804 74.5105 124.885 74.5974C124.966 74.6842 125.013 74.7974 125.017 74.916Z" fill="url(#paint0_linear_1_460)"/>
<path d="M97.053 67.373C96.7802 65.8225 96.0761 64.3803 95.0212 63.2117C93.9664 62.0432 92.6035 61.1955 91.089 60.766C88.405 59.894 85.698 59.066 83.014 58.197C82.3722 58.0134 81.7979 57.6464 81.3618 57.141C80.9257 56.6356 80.6467 56.0138 80.559 55.352C80.398 54.366 80.33 53.379 80.259 52.37C80.2514 52.2441 80.2699 52.1181 80.3132 51.9997C80.3566 51.8813 80.4239 51.7731 80.511 51.682C82.4476 49.9446 83.9352 47.7646 84.847 45.328C86.5784 41.379 87.1513 37.0192 86.499 32.757C85.9839 30.1093 84.5704 27.7208 82.4976 25.9949C80.4247 24.269 77.8196 23.3117 75.1224 23.2848C72.4253 23.2579 69.8016 24.163 67.6947 25.8471C65.5878 27.5312 64.1269 29.8912 63.559 32.528C63.1499 34.7898 63.1655 37.1079 63.605 39.364C64.205 43.356 65.394 47.21 68.193 50.215C68.7997 50.7667 69.2505 51.4684 69.5001 52.2495C69.7498 53.0306 69.7894 53.8637 69.615 54.665C69.271 56.684 68.606 57.716 66.656 58.335C63.972 59.184 61.265 59.987 58.581 60.904C56.4235 61.7092 54.6513 63.302 53.6211 65.3616C52.5909 67.4212 52.3794 69.7946 53.029 72.004H72.071C72.094 71.66 72.14 71.293 72.163 70.926C72.278 69.458 72.415 67.99 72.53 66.526C72.622 65.402 72.714 64.278 72.805 63.126C72.828 62.92 72.897 62.874 73.08 62.874H76.75C76.956 62.874 77.025 62.943 77.05 63.149C77.256 65.695 77.463 68.242 77.692 70.788C77.715 71.201 77.761 71.588 77.807 72.004H97.123C97.2265 70.461 97.203 68.9121 97.053 67.373ZM77.233 60.582C77.187 60.811 77.072 60.882 76.843 60.882C75.5583 60.8593 74.2737 60.8593 72.989 60.882C72.76 60.882 72.645 60.813 72.599 60.582C72.299 59.343 71.98 58.104 71.681 56.866H78.15C77.852 58.105 77.531 59.344 77.233 60.582Z" fill="url(#paint1_linear_1_460)"/>
<path d="M122.264 67.993C122.013 66.7137 121.413 65.5288 120.531 64.5692C119.648 63.6097 118.518 62.9129 117.264 62.5559C115.064 61.8219 112.864 61.134 110.657 60.468C110.008 60.3225 109.425 59.9673 108.998 59.4572C108.57 58.9471 108.323 58.3106 108.294 57.6459C108.248 56.9579 108.111 56.246 108.088 55.558C108.089 55.2769 108.196 55.0066 108.388 54.801C110.294 52.9944 111.688 50.7146 112.426 48.1939C113.54 45.1751 113.856 41.9198 113.344 38.743C112.892 36.568 111.724 34.6075 110.026 33.1751C108.328 31.7427 106.199 30.9212 103.979 30.8419C101.759 30.7626 99.5765 31.4302 97.7808 32.7379C95.9851 34.0456 94.6799 35.9178 94.074 38.055C93.5735 40.1868 93.5421 42.4018 93.982 44.5469C94.532 48.1259 95.682 51.475 98.272 54.113C98.6428 54.4215 98.9192 54.8283 99.0694 55.2868C99.2196 55.7453 99.2374 56.2368 99.121 56.705C99.0755 56.8851 99.0523 57.0702 99.052 57.256C99.0825 57.9488 98.8863 58.6328 98.493 59.2041C98.0998 59.7754 97.5311 60.203 96.873 60.4219C98.1221 61.6047 99.0948 63.0487 99.7214 64.6508C100.348 66.2529 100.613 67.9735 100.498 69.6899C100.452 70.4469 100.498 71.227 100.498 71.984H102.953C102.976 71.617 103.022 71.25 103.045 70.8839C103.114 69.9429 103.206 69.0029 103.274 68.0389C103.343 67.3049 103.389 66.594 103.458 65.86C103.458 65.745 103.527 65.699 103.641 65.699H106.004C106.142 65.699 106.188 65.745 106.188 65.883C106.326 67.512 106.463 69.141 106.601 70.792C106.647 71.182 106.67 71.592 106.716 71.985H122.338C122.429 70.6547 122.404 69.319 122.264 67.993ZM106.298 64.208C106.287 64.265 106.255 64.3159 106.209 64.3501C106.162 64.3843 106.104 64.3993 106.046 64.3919H103.568C103.407 64.3919 103.339 64.346 103.316 64.208C103.132 63.408 102.926 62.602 102.716 61.822H106.868C106.688 62.625 106.481 63.405 106.298 64.208Z" fill="url(#paint2_linear_1_460)"/>
<path d="M50.805 58.197C50.736 57.697 50.736 57.165 50.644 56.683C50.5331 56.3123 50.5446 55.9156 50.6768 55.552C50.809 55.1883 51.0549 54.8769 51.378 54.664C51.7358 54.3786 52.0457 54.038 52.296 53.655C54.9498 50.0042 56.2476 45.5425 55.966 41.038C55.8731 38.7337 54.9668 36.5368 53.408 34.8372C51.8493 33.1376 49.7388 32.0451 47.4511 31.7536C45.1635 31.4621 42.8465 31.9904 40.9113 33.2448C38.9761 34.4992 37.5479 36.3986 36.88 38.606C36.4221 40.3577 36.3285 42.1847 36.605 43.974C37.018 47.736 38.005 51.338 40.642 54.137C41.1172 54.5987 41.4674 55.1735 41.6598 55.8075C41.8522 56.4415 41.8805 57.114 41.742 57.762C41.7067 58.4781 41.4391 59.1632 40.9797 59.7136C40.5204 60.2641 39.8942 60.65 39.196 60.813C37.085 61.432 34.975 62.098 32.887 62.786C28.827 64.139 27.152 67.764 27.863 72.054H44.242C44.265 71.71 44.288 71.366 44.334 71.045C44.403 70.104 44.495 69.145 44.563 68.2C44.632 67.466 44.678 66.755 44.747 66.021C44.747 65.906 44.816 65.86 44.931 65.86H47.299C47.437 65.86 47.483 65.906 47.483 66.044C47.621 67.673 47.758 69.324 47.896 70.953C47.919 71.32 47.965 71.687 47.988 72.053H49.64C49.227 67.853 49.778 63.932 53.012 60.743C52.4426 60.5679 51.9338 60.2364 51.5436 59.7863C51.1534 59.3362 50.8975 58.7855 50.805 58.197ZM47.593 64.322C47.547 64.483 47.501 64.506 47.341 64.506H44.863C44.702 64.506 44.634 64.46 44.611 64.322C44.427 63.522 44.221 62.716 44.011 61.936H48.163C47.984 62.716 47.777 63.519 47.594 64.322H47.593Z" fill="url(#paint3_linear_1_460)"/>
<path d="M23.918 53.2649C21.785 53.2649 19.518 51.4529 19.697 49.3189C20.3111 41.5579 22.7308 34.0477 26.763 27.3879L33.599 31.1959C30.1585 36.881 28.0927 43.2908 27.566 49.9149C27.483 50.8268 27.0634 51.6751 26.389 52.2944C25.7146 52.9138 24.8336 53.2597 23.918 53.2649Z" fill="url(#paint4_linear_1_460)"/>
<path d="M72.277 4.26397C72.277 2.13097 70.465 -0.136025 68.331 0.0429748C60.5699 0.65708 53.0598 3.07677 46.4 7.10897L50.208 13.945C55.8931 10.5045 62.3028 8.4387 68.927 7.91196C69.8416 7.83607 70.6942 7.4186 71.3149 6.74262C71.9357 6.06664 72.2791 5.18173 72.277 4.26397Z" fill="url(#paint5_linear_1_460)"/>
<path d="M37.774 8.32595C39.0886 8.28787 40.3974 8.5145 41.6226 8.99236C42.8479 9.47023 43.9645 10.1896 44.9062 11.1076C45.8479 12.0257 46.5953 13.1237 47.1041 14.3365C47.613 15.5492 47.8727 16.8518 47.868 18.167C47.96 23.833 42.706 29.247 37.109 29.267C31.833 29.29 26.923 24.151 26.809 18.531C26.74 12.913 31.626 8.37095 37.774 8.32595Z" fill="url(#paint6_linear_1_460)"/>
<path d="M76.934 4.58495C76.934 2.45195 78.746 0.184959 80.88 0.363959C88.6411 0.978064 96.1513 3.39776 102.811 7.42995L99.0031 14.266C93.318 10.8255 86.9083 8.75966 80.2841 8.23296C79.3679 8.16116 78.5129 7.74492 77.8913 7.06805C77.2697 6.39117 76.9277 5.50391 76.934 4.58495Z" fill="url(#paint7_linear_1_460)"/>
<path d="M125.911 52.9439C128.044 52.9439 130.311 51.132 130.132 48.998C129.518 41.2369 127.098 33.7268 123.066 27.067L116.23 30.8749C119.67 36.56 121.736 42.9698 122.263 49.5939C122.342 50.5074 122.76 51.358 123.436 51.9781C124.111 52.5983 124.994 52.9429 125.911 52.9439Z" fill="url(#paint8_linear_1_460)"/>
<path d="M121.874 18.4639C121.912 19.7785 121.685 21.0873 121.207 22.3124C120.729 23.5376 120.01 24.6542 119.092 25.5958C118.174 26.5375 117.076 27.2849 115.863 27.7938C114.651 28.3027 113.348 28.5625 112.033 28.558C106.367 28.65 100.953 23.396 100.933 17.799C100.91 12.523 106.049 7.61395 111.669 7.49895C117.263 7.40295 121.83 12.2929 121.874 18.4639Z" fill="url(#paint9_linear_1_460)"/>
<path d="M0.726013 155.395V136.515H5.108V155.395H0.726013Z" fill="#7FC243"/>
<path d="M25.019 155.922L13.687 145.439V155.418H9.397V136.102H9.76401L21.097 146.702V136.538H25.41V155.945H25.02L25.019 155.922Z" fill="#7FC243"/>
<path d="M35.228 155.67C33.7147 155.671 32.2193 155.343 30.846 154.707C29.5137 154.128 28.3808 153.171 27.588 151.954L30.433 149.27C31.0364 150.014 31.796 150.617 32.658 151.036C33.4935 151.505 34.4302 151.765 35.388 151.793C36.0947 151.824 36.7977 151.674 37.43 151.357C37.6761 151.257 37.8866 151.086 38.0339 150.865C38.1812 150.644 38.2586 150.384 38.256 150.118C38.2525 149.918 38.198 149.723 38.0975 149.55C37.997 149.378 37.8539 149.234 37.682 149.132C37.1586 148.814 36.5954 148.567 36.007 148.398L32.222 147.228C31.0763 146.858 30.0479 146.194 29.24 145.301C28.4581 144.417 28.046 143.266 28.089 142.086C28.0737 141.26 28.265 140.443 28.6455 139.709C29.0261 138.976 29.5838 138.349 30.268 137.886C31.7031 136.83 33.4413 136.267 35.223 136.28C38.343 136.28 40.683 137.266 42.223 139.262L39.103 141.831C38.6459 141.276 38.053 140.85 37.382 140.592C36.7159 140.303 35.9972 140.154 35.271 140.156C34.6697 140.153 34.0775 140.303 33.55 140.592C33.2943 140.694 33.0759 140.872 32.9241 141.101C32.7723 141.331 32.6945 141.602 32.701 141.877C32.7041 142.174 32.8186 142.46 33.022 142.677C33.204 142.886 33.4315 143.051 33.687 143.159C33.916 143.251 34.215 143.365 34.605 143.503L38.62 144.742C39.8343 145.092 40.9345 145.757 41.809 146.669C42.5402 147.471 42.9416 148.52 42.933 149.605C42.9266 150.443 42.7265 151.268 42.3486 152.017C41.9706 152.765 41.4249 153.415 40.754 153.918C39.1646 155.113 37.2156 155.731 35.228 155.67Z" fill="#7FC243"/>
<path d="M45.23 155.395V136.515H49.612V155.395H45.23Z" fill="#7FC243"/>
<path d="M68.583 152.872C67.7167 153.785 66.6695 154.508 65.5083 154.993C64.3472 155.479 63.0975 155.718 61.839 155.694C59.2605 155.677 56.7927 154.644 54.9715 152.818C53.1503 150.993 52.1228 148.523 52.112 145.944C52.1152 143.372 53.1382 140.907 54.9566 139.089C56.775 137.27 59.2404 136.247 61.812 136.244C63.5209 136.237 65.2003 136.689 66.675 137.552C68.1566 138.406 69.3901 139.632 70.254 141.108L66.285 143.287C65.8336 142.495 65.1958 141.826 64.427 141.337C63.4535 140.74 62.3041 140.496 61.1719 140.646C60.0397 140.797 58.9938 141.332 58.21 142.163C57.235 143.18 56.6994 144.539 56.719 145.948C56.6818 147.396 57.2081 148.803 58.187 149.871C58.6419 150.388 59.2039 150.799 59.8339 151.076C60.4639 151.354 61.1468 151.49 61.835 151.477C62.9597 151.506 64.0633 151.168 64.978 150.513C65.8426 149.906 66.4489 148.998 66.678 147.967H61.838V144.82H71.358V145.967C71.3776 147.245 71.1423 148.513 70.6658 149.699C70.1893 150.884 69.4813 151.963 68.583 152.872Z" fill="#7FC243"/>
<path d="M89.413 155.922L78.081 145.439V155.418H73.791V136.102H74.158L85.491 146.702V136.538H89.827V155.945H89.414L89.413 155.922Z" fill="#7FC243"/>
<path d="M93.382 155.395V136.515H97.764V155.395H93.382Z" fill="#7FC243"/>
<path d="M98.521 155.395L107.537 136.056H108.137L117.153 155.395H112.244L111.326 153.147H104.352L103.434 155.395H98.521ZM105.721 149.595H109.896L107.808 144.686L105.721 149.595Z" fill="url(#paint10_linear_1_460)"/>
<path d="M118.272 155.395V136.515H126.508C128.1 136.52 129.626 137.155 130.752 138.281C131.878 139.407 132.512 140.933 132.518 142.525C132.512 144.117 131.878 145.643 130.752 146.769C129.626 147.894 128.1 148.529 126.508 148.535H122.672V155.394L118.272 155.395ZM122.672 144.384H126.09C126.583 144.384 127.055 144.188 127.404 143.84C127.752 143.491 127.948 143.019 127.948 142.526C127.948 142.033 127.752 141.561 127.404 141.212C127.055 140.864 126.583 140.668 126.09 140.668H122.672V144.384Z" fill="#6CB6D2"/>
<path d="M134.858 155.395V136.515H143.094C144.686 136.52 146.212 137.155 147.338 138.281C148.464 139.407 149.099 140.933 149.104 142.525C149.099 144.117 148.464 145.643 147.338 146.769C146.212 147.894 144.686 148.529 143.094 148.535H139.258V155.394L134.858 155.395ZM139.258 144.384H142.676C143.169 144.384 143.641 144.188 143.99 143.84C144.338 143.491 144.534 143.019 144.534 142.526C144.534 142.033 144.338 141.561 143.99 141.212C143.641 140.864 143.169 140.668 142.676 140.668H139.258V144.384Z" fill="#6CB6D2"/>
</svg>
