<svg width="61" height="70" viewBox="0 0 61 70" fill="none" xmlns="http://www.w3.org/2000/svg">
<defs>
<linearGradient id="paint0_linear_1_776" x1="1.00109" y1="22.5453" x2="59.5716" y2="19.5018" gradientUnits="userSpaceOnUse">
<stop offset="1" stop-color="#72BAA1"/>
<stop offset="1" stop-color="#7DC251"/>
</linearGradient>
<linearGradient id="paint1_linear_1_776" x1="-9.03388" y1="61.0487" x2="72.7097" y2="56.4484" gradientUnits="userSpaceOnUse">
<stop offset="1" stop-color="#72BAA1"/>
<stop offset="1" stop-color="#7DC251"/>
</linearGradient>
</defs>
<path d="M14.697 22.161C14.697 20.2415 15.0751 18.3408 15.8097 16.5673C16.5442 14.7939 17.6209 13.1826 18.9782 11.8252C20.3355 10.4679 21.9469 9.39125 23.7203 8.65667C25.4937 7.9221 27.3945 7.54402 29.314 7.54402C31.2335 7.54402 33.1343 7.9221 34.9077 8.65667C36.6811 9.39125 38.2925 10.4679 39.6498 11.8252C41.0071 13.1826 42.0838 14.7939 42.8183 16.5673C43.5529 18.3408 43.931 20.2415 43.931 22.161V29.061H50.475V22.161C50.4942 19.3699 49.961 16.6026 48.9062 14.0185C47.8514 11.4343 46.2958 9.08439 44.3289 7.10399C42.3621 5.12358 40.0229 3.55184 37.446 2.47928C34.8692 1.40673 32.1056 0.854553 29.3145 0.854553C26.5234 0.854553 23.7598 1.40673 21.1829 2.47928C18.6061 3.55184 16.2669 5.12358 14.3001 7.10399C12.3332 9.08439 10.7776 11.4343 9.72279 14.0185C8.66798 16.6026 8.13482 19.3699 8.154 22.161V29.061H14.698L14.697 22.161Z" fill="url(#paint0_linear_1_776)"/>
<path d="M57.362 33.084H3.638C2.92668 33.0838 2.24434 33.3659 1.74089 33.8684C1.23745 34.3709 0.954063 35.0527 0.953003 35.764V66.7641C0.952872 67.1167 1.02223 67.4659 1.15712 67.7917C1.292 68.1175 1.48978 68.4136 1.73913 68.6629C1.98848 68.9123 2.28452 69.11 2.61034 69.2449C2.93616 69.3798 3.28536 69.4492 3.638 69.4491H57.362C57.7146 69.4492 58.0638 69.3798 58.3897 69.2449C58.7155 69.11 59.0115 68.9123 59.2609 68.6629C59.5102 68.4136 59.708 68.1175 59.8429 67.7917C59.9778 67.4659 60.0471 67.1167 60.047 66.7641V35.764C60.0459 35.0527 59.7626 34.3709 59.2591 33.8684C58.7557 33.3659 58.0733 33.0838 57.362 33.084ZM32.513 62.31C32.513 62.8441 32.3009 63.3562 31.9233 63.7338C31.5457 64.1114 31.0335 64.3235 30.4995 64.3235C29.9655 64.3235 29.4533 64.1114 29.0757 63.7338C28.6981 63.3562 28.486 62.8441 28.486 62.31V62.132C28.486 61.598 28.6981 61.0859 29.0757 60.7083C29.4533 60.3307 29.9655 60.1185 30.4995 60.1185C31.0335 60.1185 31.5457 60.3307 31.9233 60.7083C32.3009 61.0859 32.513 61.598 32.513 62.132V62.31ZM32.788 52.633C32.7105 52.6558 32.6421 52.7025 32.5927 52.7664C32.5433 52.8303 32.5154 52.9083 32.513 52.989V54.772C32.513 55.3061 32.3009 55.8182 31.9233 56.1958C31.5457 56.5734 31.0335 56.7855 30.4995 56.7855C29.9655 56.7855 29.4533 56.5734 29.0757 56.1958C28.6981 55.8182 28.486 55.3061 28.486 54.772V52.989C28.4869 52.0586 28.7826 51.1524 29.3308 50.4007C29.879 49.6489 30.6514 49.0903 31.537 48.805C32.1213 48.6139 32.6414 48.2649 33.0399 47.7967C33.4383 47.3285 33.6995 46.7593 33.7948 46.1519C33.89 45.5445 33.8155 44.9227 33.5794 44.355C33.3434 43.7873 32.955 43.2959 32.4573 42.9351C31.9595 42.5743 31.3717 42.3581 30.7587 42.3104C30.1458 42.2627 29.5316 42.3854 28.984 42.6649C28.4364 42.9443 27.9767 43.3697 27.6557 43.8941C27.3347 44.4184 27.1649 45.0213 27.165 45.636C27.165 46.1701 26.9529 46.6822 26.5753 47.0598C26.1977 47.4374 25.6855 47.6495 25.1515 47.6495C24.6175 47.6495 24.1053 47.4374 23.7277 47.0598C23.3501 46.6822 23.138 46.1701 23.138 45.636C23.1385 44.279 23.514 42.9485 24.2231 41.7915C24.9323 40.6345 25.9474 39.696 27.1564 39.0797C28.3654 38.4634 29.7212 38.1932 31.0741 38.299C32.427 38.4048 33.7243 38.8825 34.8228 39.6794C35.9212 40.4762 36.7781 41.5611 37.2987 42.8143C37.8193 44.0675 37.9834 45.4402 37.7729 46.7808C37.5623 48.1214 36.9854 49.3777 36.1057 50.411C35.226 51.4443 34.0778 52.2143 32.788 52.636V52.633Z" fill="url(#paint1_linear_1_776)"/>
</svg>
