<svg xmlns="http://www.w3.org/2000/svg" xmlns:xlink="http://www.w3.org/1999/xlink" width="97" height="67" viewBox="0 0 97 67">
  <defs>
    <filter id="Rectangle_86" x="0" y="0" width="97" height="67" filterUnits="userSpaceOnUse">
      <feOffset dy="3" input="SourceAlpha"/>
      <feGaussianBlur stdDeviation="4" result="blur"/>
      <feFlood flood-opacity="0.161"/>
      <feComposite operator="in" in2="blur"/>
      <feComposite in="SourceGraphic"/>
    </filter>
  </defs>
  <g id="Group_118" data-name="Group 118" transform="translate(-260 -271)">
    <g transform="matrix(1, 0, 0, 1, 260, 271)" >
      <rect id="Rectangle_86-2" data-name="Rectangle 86" width="73" height="43" rx="15" transform="translate(12 9)" fill="#fff"/>
    </g>
    <g id="Group_97" data-name="Group 97" transform="translate(13)">
      <text id="Mark" transform="translate(293 306)" font-size="12" font-family="SegoeUI, Segoe UI"><tspan x="0" y="0">Mark</tspan></text>
      <g id="vuesax_outline_tick-circle" data-name="vuesax/outline/tick-circle" transform="translate(-477 106)">
        <g id="tick-circle" transform="translate(748 188)">
          <path id="Vector" d="M7.167,14.333a7.167,7.167,0,1,1,7.167-7.167A7.173,7.173,0,0,1,7.167,14.333ZM7.167,1a6.167,6.167,0,1,0,6.167,6.167A6.174,6.174,0,0,0,7.167,1Z" transform="translate(0.833 0.833)"/>
          <path id="Vector-2" data-name="Vector" d="M2.385,4.778a.5.5,0,0,1-.353-.147L.145,2.745a.5.5,0,0,1,.707-.707L2.385,3.572,5.812.145a.5.5,0,0,1,.707.707l-3.78,3.78A.5.5,0,0,1,2.385,4.778Z" transform="translate(4.668 5.608)"/>
          <path id="Vector-3" data-name="Vector" d="M0,0H16V16H0Z" fill="none" opacity="0"/>
        </g>
      </g>
    </g>
  </g>
</svg>
