<svg id="vuesax_outline_notification" data-name="vuesax/outline/notification" xmlns="http://www.w3.org/2000/svg" xmlns:xlink="http://www.w3.org/1999/xlink" width="13.448" height="13.448" viewBox="0 0 13.448 13.448">
  <defs>
    <linearGradient id="linear-gradient" x1="0.08" y1="0.57" x2="1.168" y2="0.562" gradientUnits="objectBoundingBox">
      <stop offset="0" stop-color="#5cc5c1"/>
      <stop offset="1" stop-color="#1379b6"/>
    </linearGradient>
  </defs>
  <g id="notification">
    <path id="Vector" d="M4.927,10.288a12.145,12.145,0,0,1-3.849-.622,1.559,1.559,0,0,1-.986-.925A1.513,1.513,0,0,1,.243,7.408l.644-1.07A2.268,2.268,0,0,0,1.145,5.4V3.782a3.782,3.782,0,0,1,7.564,0V5.4a2.342,2.342,0,0,0,.258.941l.639,1.065a1.551,1.551,0,0,1,.123,1.334,1.524,1.524,0,0,1-.958.925A12.085,12.085,0,0,1,4.927,10.288Zm0-9.447A2.945,2.945,0,0,0,1.985,3.782V5.4A3.16,3.16,0,0,1,1.61,6.769L.966,7.839a.7.7,0,0,0-.084.611.709.709,0,0,0,.465.415,11.206,11.206,0,0,0,7.167,0,.684.684,0,0,0,.431-.42.7.7,0,0,0-.056-.605l-.644-1.07A3.149,3.149,0,0,1,7.869,5.4V3.782A2.941,2.941,0,0,0,4.927.84Z" transform="translate(1.808 1.216)" fill="url(#linear-gradient)"/>
    <path id="Vector-2" data-name="Vector" d="M2.5,1.547a.427.427,0,0,1-.118-.017,3.948,3.948,0,0,0-.471-.1,3.276,3.276,0,0,0-1.367.1A.417.417,0,0,1,.031.975,1.526,1.526,0,0,1,1.46,0,1.518,1.518,0,0,1,2.888.975a.427.427,0,0,1-.078.437A.433.433,0,0,1,2.5,1.547Z" transform="translate(5.281 0.661)" fill="url(#linear-gradient)"/>
    <path id="Vector-3" data-name="Vector" d="M2.1,2.1A2.109,2.109,0,0,1,.616,1.485,2.109,2.109,0,0,1,0,0H.84a1.269,1.269,0,0,0,.37.891,1.269,1.269,0,0,0,.891.37A1.263,1.263,0,0,0,3.362,0H4.2A2.1,2.1,0,0,1,2.1,2.1Z" transform="translate(4.634 10.68)" fill="url(#linear-gradient)"/>
    <path id="Vector-4" data-name="Vector" d="M0,0H13.448V13.448H0Z" fill="none" opacity="0"/>
  </g>
</svg>
