<svg xmlns="http://www.w3.org/2000/svg" width="20" height="20" viewBox="0 0 20 20">
  <g id="vuesax_outline_frame" data-name="vuesax/outline/frame" transform="translate(-108 -252)">
    <g id="frame" transform="translate(108 252)">
      <path id="Vector" d="M4.458,8.642H4.392a.452.452,0,0,0-.15,0,4.288,4.288,0,1,1,.242,0ZM4.325,1.25a3.072,3.072,0,0,0-.117,6.142,1.375,1.375,0,0,1,.267,0,3.073,3.073,0,0,0-.15-6.142Z" transform="translate(5.675 1.042)"/>
      <path id="Vector-2" data-name="Vector" d="M0,0H20V20H0Z" fill="none" opacity="0"/>
      <path id="Vector-3" data-name="Vector" d="M6.308,8.427a8.232,8.232,0,0,1-4.517-1.25A3.576,3.576,0,0,1,0,4.219,3.613,3.613,0,0,1,1.792,1.244a8.823,8.823,0,0,1,9.033,0A3.6,3.6,0,0,1,12.617,4.2a3.613,3.613,0,0,1-1.792,2.975A8.251,8.251,0,0,1,6.308,8.427ZM2.483,2.294A2.4,2.4,0,0,0,1.25,4.227,2.391,2.391,0,0,0,2.483,6.144a7.531,7.531,0,0,0,7.65,0A2.4,2.4,0,0,0,11.367,4.21a2.391,2.391,0,0,0-1.233-1.917A7.57,7.57,0,0,0,2.483,2.294Z" transform="translate(3.833 10.365)"/>
    </g>
  </g>
</svg>
