<svg fill="none" height="70" viewBox="0 0 70 70" width="70" xmlns="http://www.w3.org/2000/svg" xmlns:xlink="http://www.w3.org/1999/xlink"><filter id="a" color-interpolation-filters="sRGB" filterUnits="userSpaceOnUse" height="70" width="70" x="0" y="0"><feFlood flood-opacity="0" result="BackgroundImageFix"/><feColorMatrix in="SourceAlpha" result="hardAlpha" type="matrix" values="0 0 0 0 0 0 0 0 0 0 0 0 0 0 0 0 0 0 127 0"/><feOffset/><feGaussianBlur stdDeviation="5"/><feColorMatrix type="matrix" values="0 0 0 0 0.490196 0 0 0 0 0.756863 0 0 0 0 0.356863 0 0 0 0.478 0"/><feBlend in2="BackgroundImageFix" mode="normal" result="effect1_dropShadow_1_958"/><feBlend in="SourceGraphic" in2="effect1_dropShadow_1_958" mode="normal" result="shape"/></filter><linearGradient id="b" gradientUnits="userSpaceOnUse" x1="10" x2="56.85" y1="35" y2="35"><stop offset="1" stop-color="#72baa3"/><stop offset="1" stop-color="#7dc155"/></linearGradient><g filter="url(#a)"><path d="m35 10c4.9445 0 9.778 1.4662 13.8893 4.2133 4.1112 2.747 7.3155 6.6515 9.2077 11.2196 1.8922 4.5682 2.3873 9.5948 1.4226 14.4444-.9646 4.8495-3.3456 9.3041-6.8419 12.8004s-7.9509 5.8773-12.8004 6.8419c-4.8496.9647-9.8762.4696-14.4444-1.4226-4.5681-1.8922-8.4726-5.0965-11.2196-9.2077-2.7471-4.1113-4.2133-8.9448-4.2133-13.8893 0-6.6304 2.6339-12.9893 7.3223-17.6777s11.0473-7.3223 17.6777-7.3223z" fill="url(#b)"/></g><g fill="#fff"><path d="m35.093 25.6612c-1.1572-.0051-2.2696.4472-3.0949 1.2585-.8252.8113-1.2965 1.9158-1.3111 3.0729-.0146 1.1572.4285 2.2732 1.233 3.1052.8044.8319 1.905 1.3122 3.062 1.3364.0664-.009.1336-.009.2 0h.065c1.1483-.0425 2.2341-.5336 3.0241-1.3679.7901-.8343 1.2214-1.9453 1.2012-3.0941-.0202-1.1489-.4902-2.244-1.309-3.0501-.8189-.8061-1.9213-1.2588-3.0703-1.2609z"/><path d="m39.785 36.894c-1.4194-.844-3.0401-1.2895-4.6915-1.2895s-3.2721.4455-4.6915 1.2895c-.5285.3059-.9719.7396-1.2893 1.2613-.3175.5217-.4989 1.1147-.5277 1.7247.0286.6069.2096 1.1969.5263 1.7154.3166.5186.7588.949 1.2857 1.2516 1.4071.8808 3.0403 1.3326 4.7 1.3 1.6597.0326 3.2929-.4192 4.7-1.3.5277-.3064.9701-.7403 1.2867-1.262.3166-.5216.4972-1.1144.5253-1.724-.0319-.6076-.2155-1.1975-.5341-1.7158-.3187-.5183-.7621-.9485-1.2899-1.2512z"/></g></svg>