<svg xmlns="http://www.w3.org/2000/svg" xmlns:xlink="http://www.w3.org/1999/xlink" width="64" height="46" viewBox="0 0 64 46">
  <defs>
    <linearGradient id="linear-gradient" x1="0.5" x2="0.5" y2="1" gradientUnits="objectBoundingBox">
      <stop offset="0" stop-color="#72BAA2"/>
      <stop offset="1" stop-color="#7DC24C"/>
    </linearGradient>
    <filter id="Rectangle_99" x="0" y="0" width="64" height="46" filterUnits="userSpaceOnUse">
      <feOffset dy="3" input="SourceAlpha"/>
      <feGaussianBlur stdDeviation="2.5" result="blur"/>
      <feFlood flood-opacity="0.149"/>
      <feComposite operator="in" in2="blur"/>
      <feComposite in="SourceGraphic"/>
    </filter>
  </defs>
  <g id="Group_117" data-name="Group 117" transform="translate(-291.5 -226.5)">
    <g transform="matrix(1, 0, 0, 1, 291.5, 226.5)" filter="url(#Rectangle_99)">
      <rect id="Rectangle_99-2" data-name="Rectangle 99" width="49" height="31" rx="15.5" transform="translate(7.5 4.5)" fill="url(#linear-gradient)"/>
    </g>
    <g id="vuesax_outline_keyboard" data-name="vuesax/outline/keyboard" transform="translate(13 -80)">
      <g id="keyboard" transform="translate(300 316)">
        <path id="Vector" d="M13.111,15.555h-8a10.735,10.735,0,0,1-1.573-.089C.587,15.147,0,13.378,0,10.444V5.111C0,2.178.587.409,3.564.08A11.652,11.652,0,0,1,5.111,0h8a10.735,10.735,0,0,1,1.573.089c2.951.32,3.538,2.089,3.538,5.022v5.333c0,2.933-.587,4.7-3.564,5.031A11.653,11.653,0,0,1,13.111,15.555Zm-8-14.222A10.8,10.8,0,0,0,3.733,1.4c-1.8.2-2.4.764-2.4,3.707v5.333c0,2.942.6,3.5,2.373,3.707a10.011,10.011,0,0,0,1.4.071h8a10.8,10.8,0,0,0,1.378-.071c1.8-.2,2.4-.764,2.4-3.707V5.111c0-2.942-.6-3.5-2.373-3.707a10.011,10.011,0,0,0-1.4-.071Z" transform="translate(1.556 2.889)" fill="#fff"/>
        <path id="Vector-2" data-name="Vector" d="M3.778,1.333H.667A.672.672,0,0,1,0,.667.672.672,0,0,1,.667,0H3.778a.672.672,0,0,1,.667.667A.672.672,0,0,1,3.778,1.333Z" transform="translate(11.333 8.222)" fill="#fff"/>
        <path id="Vector-3" data-name="Vector" d="M.889,1.778A.889.889,0,0,1,.889,0H.9A.889.889,0,1,1,.889,1.778Z" transform="translate(8.089 8)" fill="#fff"/>
        <path id="Vector-4" data-name="Vector" d="M.889,1.778A.889.889,0,1,1,1.778.889.891.891,0,0,1,.889,1.778Z" transform="translate(5.422 8)" fill="#fff"/>
        <path id="Vector-5" data-name="Vector" d="M9.547,1.333H.676A.679.679,0,0,1,0,.667.664.664,0,0,1,.658,0H9.547a.672.672,0,0,1,.667.667A.672.672,0,0,1,9.547,1.333Z" transform="translate(5.564 13.111)" fill="#fff"/>
        <path id="Vector-6" data-name="Vector" d="M0,0H21.333V21.333H0Z" fill="none" opacity="0"/>
      </g>
    </g>
  </g>
</svg>
