<svg width="143" height="15" viewBox="0 0 143 15" fill="none" xmlns="http://www.w3.org/2000/svg">
<path d="M4.04031 0.275947C5.031 0.275947 5.85318 0.607882 6.50684 1.27175C7.17071 1.92541 7.50264 2.74248 7.50264 3.72296C7.50264 4.69324 7.17071 5.51031 6.50684 6.17418C5.85318 6.83805 5.031 7.16998 4.04031 7.16998H1.57377V11H0.149006V0.275947H4.04031ZM4.04031 5.83713C4.63268 5.83713 5.12292 5.63797 5.51103 5.23965C5.89914 4.83112 6.0932 4.32555 6.0932 3.72296C6.0932 3.11016 5.89914 2.6046 5.51103 2.20628C5.12292 1.80795 4.63268 1.60879 4.04031 1.60879H1.57377V5.83713H4.04031ZM14.9292 10.0348C14.1427 10.8111 13.1878 11.1992 12.0643 11.1992C10.9408 11.1992 9.98589 10.8111 9.19946 10.0348C8.42324 9.25862 8.03513 8.30367 8.03513 7.16998C8.03513 6.0363 8.42324 5.08134 9.19946 4.30513C9.98589 3.52891 10.9408 3.1408 12.0643 3.1408C13.1878 3.1408 14.1427 3.52891 14.9292 4.30513C15.7156 5.08134 16.1088 6.0363 16.1088 7.16998C16.1088 8.30367 15.7156 9.25862 14.9292 10.0348ZM12.0643 9.89695C12.8303 9.89695 13.4738 9.63651 13.9946 9.11563C14.5155 8.59475 14.776 7.9462 14.776 7.16998C14.776 6.39376 14.5155 5.74521 13.9946 5.22433C13.4738 4.70345 12.8303 4.44301 12.0643 4.44301C11.3085 4.44301 10.6702 4.70345 10.1493 5.22433C9.62842 5.74521 9.36798 6.39376 9.36798 7.16998C9.36798 7.9462 9.62842 8.59475 10.1493 9.11563C10.6702 9.63651 11.3085 9.89695 12.0643 9.89695ZM26.4044 3.33996H27.7985L25.4239 11H24.0604L22.268 5.33157L20.4755 11H19.112L16.7374 3.33996H18.1315L19.8168 9.16159L21.6245 3.33996H22.9114L24.7192 9.17691L26.4044 3.33996ZM29.8054 7.78278C29.9382 8.46708 30.2497 8.99818 30.74 9.37607C31.2404 9.75397 31.8532 9.94291 32.5784 9.94291C33.5895 9.94291 34.3249 9.57013 34.7845 8.82455L35.9182 9.46799C35.1726 10.6221 34.0491 11.1992 32.5477 11.1992C31.3323 11.1992 30.3416 10.8213 29.5756 10.0655C28.8198 9.29947 28.442 8.33431 28.442 7.16998C28.442 6.01587 28.8147 5.05581 29.5603 4.28981C30.3059 3.5238 31.2711 3.1408 32.4558 3.1408C33.5793 3.1408 34.4934 3.53912 35.1981 4.33577C35.913 5.1222 36.2705 6.07204 36.2705 7.1853C36.2705 7.37936 36.2552 7.57852 36.2246 7.78278H29.8054ZM32.4558 4.39705C31.7409 4.39705 31.1485 4.60131 30.6787 5.00985C30.2089 5.40817 29.9178 5.94437 29.8054 6.61846H34.9223C34.81 5.89331 34.524 5.34179 34.0644 4.96389C33.6048 4.58599 33.0686 4.39705 32.4558 4.39705ZM39.1355 4.62685C39.5747 3.677 40.3713 3.20208 41.5254 3.20208V4.59621C40.8718 4.56557 40.31 4.7392 39.8402 5.11709C39.3704 5.49499 39.1355 6.10268 39.1355 6.94018V11H37.8026V3.33996H39.1355V4.62685ZM43.3452 7.78278C43.4779 8.46708 43.7894 8.99818 44.2797 9.37607C44.7801 9.75397 45.3929 9.94291 46.1181 9.94291C47.1292 9.94291 47.8646 9.57013 48.3242 8.82455L49.4579 9.46799C48.7123 10.6221 47.5888 11.1992 46.0874 11.1992C44.8721 11.1992 43.8814 10.8213 43.1154 10.0655C42.3596 9.29947 41.9817 8.33431 41.9817 7.16998C41.9817 6.01587 42.3545 5.05581 43.1 4.28981C43.8456 3.5238 44.8108 3.1408 45.9955 3.1408C47.119 3.1408 48.0331 3.53912 48.7378 4.33577C49.4528 5.1222 49.8102 6.07204 49.8102 7.1853C49.8102 7.37936 49.7949 7.57852 49.7643 7.78278H43.3452ZM45.9955 4.39705C45.2806 4.39705 44.6882 4.60131 44.2184 5.00985C43.7486 5.40817 43.4575 5.94437 43.3452 6.61846H48.4621C48.3497 5.89331 48.0637 5.34179 47.6041 4.96389C47.1445 4.58599 46.6083 4.39705 45.9955 4.39705ZM57.6699 0.275947H59.0028V11H57.6699V9.68247C57.006 10.6936 56.0409 11.1992 54.7744 11.1992C53.702 11.1992 52.7879 10.8111 52.0321 10.0348C51.2763 9.2484 50.8984 8.29345 50.8984 7.16998C50.8984 6.04651 51.2763 5.09666 52.0321 4.32045C52.7879 3.53402 53.702 3.1408 54.7744 3.1408C56.0409 3.1408 57.006 3.64636 57.6699 4.65749V0.275947ZM54.9429 9.91227C55.7191 9.91227 56.3677 9.65183 56.8886 9.13095C57.4095 8.59985 57.6699 7.9462 57.6699 7.16998C57.6699 6.39376 57.4095 5.74521 56.8886 5.22433C56.3677 4.69324 55.7191 4.42769 54.9429 4.42769C54.1769 4.42769 53.5335 4.69324 53.0126 5.22433C52.4917 5.74521 52.2313 6.39376 52.2313 7.16998C52.2313 7.9462 52.4917 8.59985 53.0126 9.13095C53.5335 9.65183 54.1769 9.91227 54.9429 9.91227ZM69.0805 3.1408C70.1529 3.1408 71.067 3.53402 71.8228 4.32045C72.5786 5.09666 72.9565 6.04651 72.9565 7.16998C72.9565 8.29345 72.5786 9.2484 71.8228 10.0348C71.067 10.8111 70.1529 11.1992 69.0805 11.1992C67.814 11.1992 66.8489 10.6936 66.185 9.68247V11H64.8521V0.275947H66.185V4.65749C66.8489 3.64636 67.814 3.1408 69.0805 3.1408ZM68.912 9.91227C69.678 9.91227 70.3214 9.65183 70.8423 9.13095C71.3632 8.59985 71.6236 7.9462 71.6236 7.16998C71.6236 6.39376 71.3632 5.74521 70.8423 5.22433C70.3214 4.69324 69.678 4.42769 68.912 4.42769C68.1357 4.42769 67.4872 4.69324 66.9663 5.22433C66.4454 5.74521 66.185 6.39376 66.185 7.16998C66.185 7.9462 66.4454 8.59985 66.9663 9.13095C67.4872 9.65183 68.1357 9.91227 68.912 9.91227ZM79.5944 3.33996H81.0191L77.8938 11.4749C77.567 12.3431 77.1074 13.0018 76.515 13.4512C75.9329 13.9108 75.2588 14.1151 74.4928 14.064V12.8231C75.4324 12.8946 76.1218 12.3737 76.561 11.2604L76.6989 10.9694L73.3591 3.33996H74.7839L77.3883 9.34543L79.5944 3.33996ZM90.2824 0.275947C91.7429 0.275947 92.9532 0.796829 93.9132 1.83859C94.8835 2.87015 95.3687 4.13661 95.3687 5.63797C95.3687 7.13934 94.8835 8.41091 93.9132 9.45267C92.9532 10.4842 91.7429 11 90.2824 11H86.1V0.275947H90.2824ZM90.2824 9.65183C91.3752 9.65183 92.2689 9.26883 92.9634 8.50283C93.6579 7.73682 94.0052 6.78187 94.0052 5.63797C94.0052 4.49407 93.6579 3.53912 92.9634 2.77312C92.2689 2.00712 91.3752 1.62411 90.2824 1.62411H87.5248V9.65183H90.2824ZM97.6326 1.94584C97.3772 1.94584 97.1627 1.85902 96.9891 1.68539C96.8155 1.51177 96.7287 1.30239 96.7287 1.05727C96.7287 0.812149 96.8155 0.602775 96.9891 0.429147C97.1627 0.245307 97.3772 0.153387 97.6326 0.153387C97.8777 0.153387 98.0871 0.245307 98.2607 0.429147C98.4343 0.602775 98.5211 0.812149 98.5211 1.05727C98.5211 1.30239 98.4343 1.51177 98.2607 1.68539C98.0871 1.85902 97.8777 1.94584 97.6326 1.94584ZM96.9585 11V3.33996H98.2913V11H96.9585ZM106.683 3.33996H108V10.6783C108 11.812 107.617 12.6903 106.851 13.3133C106.085 13.9466 105.166 14.2632 104.093 14.2632C103.236 14.2632 102.495 14.0998 101.872 13.7729C101.249 13.4563 100.779 12.9967 100.463 12.3941L101.627 11.7354C102.046 12.5933 102.878 13.0222 104.124 13.0222C104.921 13.0222 105.544 12.8129 105.993 12.3941C106.453 11.9754 106.683 11.4034 106.683 10.6783V9.59055C106.008 10.6119 105.048 11.1226 103.802 11.1226C102.71 11.1226 101.785 10.7345 101.029 9.95823C100.274 9.18202 99.8957 8.23728 99.8957 7.12402C99.8957 6.01076 100.274 5.07113 101.029 4.30513C101.785 3.52891 102.71 3.1408 103.802 3.1408C105.059 3.1408 106.019 3.64636 106.683 4.65749V3.33996ZM102.01 9.06967C102.531 9.59055 103.179 9.85099 103.956 9.85099C104.732 9.85099 105.38 9.59055 105.901 9.06967C106.422 8.54879 106.683 7.90024 106.683 7.12402C106.683 6.35802 106.422 5.71457 105.901 5.19369C105.38 4.67281 104.732 4.41237 103.956 4.41237C103.179 4.41237 102.531 4.67281 102.01 5.19369C101.489 5.71457 101.229 6.35802 101.229 7.12402C101.229 7.90024 101.489 8.54879 102.01 9.06967ZM110.694 1.94584C110.438 1.94584 110.224 1.85902 110.05 1.68539C109.876 1.51177 109.79 1.30239 109.79 1.05727C109.79 0.812149 109.876 0.602775 110.05 0.429147C110.224 0.245307 110.438 0.153387 110.694 0.153387C110.939 0.153387 111.148 0.245307 111.322 0.429147C111.495 0.602775 111.582 0.812149 111.582 1.05727C111.582 1.30239 111.495 1.51177 111.322 1.68539C111.148 1.85902 110.939 1.94584 110.694 1.94584ZM110.019 11V3.33996H111.352V11H110.019ZM117.553 4.62685H115.515V8.77859C115.515 9.15648 115.587 9.42714 115.73 9.59055C115.883 9.74375 116.113 9.82546 116.419 9.83567C116.725 9.83567 117.103 9.82546 117.553 9.80503V11C116.388 11.1532 115.536 11.0613 114.994 10.7242C114.453 10.377 114.182 9.72843 114.182 8.77859V4.62685H112.666V3.33996H114.182V1.59347L115.515 1.19515V3.33996H117.553V4.62685ZM125.084 3.33996H126.417V11H125.084V9.68247C124.42 10.6936 123.455 11.1992 122.189 11.1992C121.116 11.1992 120.202 10.8111 119.446 10.0348C118.691 9.2484 118.313 8.29345 118.313 7.16998C118.313 6.04651 118.691 5.09666 119.446 4.32045C120.202 3.53402 121.116 3.1408 122.189 3.1408C123.455 3.1408 124.42 3.64636 125.084 4.65749V3.33996ZM122.357 9.91227C123.133 9.91227 123.782 9.65183 124.303 9.13095C124.824 8.59985 125.084 7.9462 125.084 7.16998C125.084 6.39376 124.824 5.74521 124.303 5.22433C123.782 4.69324 123.133 4.42769 122.357 4.42769C121.591 4.42769 120.948 4.69324 120.427 5.22433C119.906 5.74521 119.646 6.39376 119.646 7.16998C119.646 7.9462 119.906 8.59985 120.427 9.13095C120.948 9.65183 121.591 9.91227 122.357 9.91227ZM129.371 7.78278C129.504 8.46708 129.815 8.99818 130.305 9.37607C130.806 9.75397 131.419 9.94291 132.144 9.94291C133.155 9.94291 133.89 9.57013 134.35 8.82455L135.484 9.46799C134.738 10.6221 133.615 11.1992 132.113 11.1992C130.898 11.1992 129.907 10.8213 129.141 10.0655C128.385 9.29947 128.007 8.33431 128.007 7.16998C128.007 6.01587 128.38 5.05581 129.126 4.28981C129.871 3.5238 130.837 3.1408 132.021 3.1408C133.145 3.1408 134.059 3.53912 134.764 4.33577C135.479 5.1222 135.836 6.07204 135.836 7.1853C135.836 7.37936 135.821 7.57852 135.79 7.78278H129.371ZM132.021 4.39705C131.306 4.39705 130.714 4.60131 130.244 5.00985C129.774 5.40817 129.483 5.94437 129.371 6.61846H134.488C134.376 5.89331 134.09 5.34179 133.63 4.96389C133.17 4.58599 132.634 4.39705 132.021 4.39705ZM138.482 9.72843H142.557V11H136.659V10.1114L140.565 4.61153H136.812V3.33996H142.404V4.22853L138.482 9.72843Z" fill="black"/>
</svg>
