<svg xmlns="http://www.w3.org/2000/svg" width="30.168" height="26.116" viewBox="0 0 30.168 26.116">
  <g id="Group_119" data-name="Group 119" transform="translate(-34.213 -114)">
    <g id="Polygon_1" data-name="Polygon 1" transform="translate(34.213 114)" fill="none">
      <path d="M9.889,9A6,6,0,0,1,20.28,9l4.69,8.12a6,6,0,0,1-5.2,9h-9.38a6,6,0,0,1-5.2-9Z" stroke="none"/>
      <path d="M 15.08417797088623 7.746320724487305 C 13.54802703857422 7.746320724487305 12.17224884033203 8.540470123291016 11.4039478302002 9.870670318603516 L 6.714197158813477 17.9902400970459 C 5.945657730102539 19.32085037231445 5.945438385009766 20.90974998474121 6.713628768920898 22.24056053161621 C 7.481817245483398 23.57138061523438 8.857818603515625 24.36589050292969 10.39442825317383 24.36589050292969 L 19.77392768859863 24.36589050292969 C 21.31053924560547 24.36589050292969 22.68653869628906 23.57138061523438 23.45472717285156 22.24056053161621 C 24.2229175567627 20.90974998474121 24.22269821166992 19.32085037231445 23.45415878295898 17.9902400970459 L 18.76440811157227 9.870670318603516 C 17.99610900878906 8.540470123291016 16.62031936645508 7.746320724487305 15.08417797088623 7.746320724487305 M 15.08417415618896 5.996322631835938 C 17.10457611083984 5.996322631835938 19.12497711181641 6.996015548706055 20.2797966003418 8.995399475097656 L 24.96954727172852 17.11497116088867 C 27.27989768981934 21.11497116088867 24.39320755004883 26.11589050292969 19.77392768859863 26.11589050292969 L 10.39442825317383 26.11589050292969 C 5.775148391723633 26.11589050292969 2.888458251953125 21.11497116088867 5.198808670043945 17.11497116088867 L 9.888557434082031 8.995399475097656 C 11.04337310791016 6.996015548706055 13.06377220153809 5.996322631835938 15.08417415618896 5.996322631835938 Z" stroke="none" fill="#fff"/>
    </g>
    <rect id="Rectangle_21" data-name="Rectangle 21" width="2" height="6" rx="1" transform="translate(49 125)" fill="#fff"/>
    <circle id="Ellipse_9" data-name="Ellipse 9" cx="1" cy="1" r="1" transform="translate(49 133)" fill="#fff"/>
  </g>
</svg>
